<ttFont>
          <CharString index="0">
            231 330 rmoveto
            89 352 89 -352 rlineto
            142 -262 rmoveto
            -171 682 rlineto
            -118 hlineto
            -174 -682 rlineto
            -63 -13 callgsubr
            -55 hlineto
            50 199 rlineto
            18 callgsubr
            50 -199 rlineto
            -54 -13 callgsubr
            hlineto
            return
          </CharString>
          <CharString index="1">
            130 139 rmoveto
            285 180 rlineto
            93 vlineto
            67 -28 22 -65 vhcurveto
            -169 hlineto
            -72 -31 -34 -65 hvcurveto
            -329 vlineto
            -40 23 -33 57 vhcurveto
            205 hlineto
            57 23 33 40 hvcurveto
            return
          </CharString>
          <CharString index="2">
            hmoveto
            68 25 34 55 hvcurveto
            322 vlineto
            53 -20 36 -73 vhcurveto
            -185 hlineto
            -75 -18 -36 -53 hvcurveto
            -322 vlineto
            -55 25 -34 68 vhcurveto
            -12 -24 callsubr
            209 -364 -209 hlineto
            return
          </CharString>
          <CharString index="3">
            -5 callsubr
            vlineto
            -31 callgsubr
            -61 -37 -7 -11 -48 vvcurveto
            -37 vlineto
            -65 16 -23 69 vhcurveto
            348 68 hlineto
            -145 hmoveto
            -208 80 hlineto
            208 130 rlineto
            return
          </CharString>
          <CharString index="4">
            rmoveto
            -73 hlineto
            -69 -80 -70 80 rlineto
            -74 hlineto
            112 -58 callsubr
            67 hlineto
            return
          </CharString>
          <CharString index="5">
            372 -4 callgsubr
            36 vlineto
            -130 -244 -127 244 rlineto
            36 68 -162 -68 45 hlineto
            166 -313 rlineto
            -301 -17 callgsubr
            301 vlineto
            175 313 rlineto
            38 68 hlineto
            return
          </CharString>
          <CharString index="6">
            210 -69 callgsubr
            return
          </CharString>
          <CharString index="7">
            165 vstem
            646 -4 callgsubr
            40 vlineto
            -95 -614 -105 682 rlineto
            -136 hlineto
            -105 -682 -95 614 rlineto
            40 68 -165 -68 48 hlineto
            107 -682 rlineto
            130 hlineto
            108 681 108 -681 rlineto
            130 hlineto
            107 682 rlineto
            48 68 hlineto
            return
          </CharString>
          <CharString index="8">
            -108 -89 rlineto
            -75 88 -53 -82 vlineto
            -56 -12 31 37 hvcurveto
            31 vlineto
            43 14 11 40 30 vhcurveto
            44 34 rlineto
            endchar
          </CharString>
          <CharString index="9">
            -85 callsubr
            hintmask 0111010100000000
            -99 callgsubr
            hintmask 1011100010000000
            -28 callgsubr
            hintmask 1011101000000000
            -38 callgsubr
            hintmask 1011100100000000
            -90 callgsubr
            hintmask 1011011000000000
            return
          </CharString>
          <CharString index="10">
            18 callsubr
            88 -35 45 -81 vhcurveto
            -226 -68 rmoveto
            262 -614 -262 hlineto
            return
          </CharString>
          <CharString index="11">
            -48 40 -41 49 49 40 40 49 49 -40 40 -48 -50 -40 -40 -49 vhcurveto
            49 1 rmoveto
            22 18 18 23 21 19 -18 -23 -21 -18 -19 -23 -22 -18 19 22 vhcurveto
            endchar
          </CharString>
          <CharString index="12">
            390 68 rmoveto
            346 vlineto
            56 -25 30 -67 vhcurveto
            -250 -126 64 return
          </CharString>
          <CharString index="13">
            -82 68 150 -233 vlineto
            -76 -18 -40 -49 hvcurveto
            -57 vlineto
            -53 28 -4 67 -43 vhcurveto
            164 -103 rlineto
            return
          </CharString>
          <CharString index="14">
            -83 callsubr
            68 return
          </CharString>
          <CharString index="15">
            -117 -256 286 141 -71 68 8 callsubr
            return
          </CharString>
          <CharString index="16">
            145 -70 callgsubr
            return
          </CharString>
          <CharString index="17">
            104 0 -92 callgsubr
            80 14 callsubr
            -63 callsubr
            223 198 -170 73 hintmask 11001001
            575 68 -75 callgsubr
            hintmask 11000110
            -85 callgsubr
            hintmask 11001010
            -95 callgsubr
            hintmask 11000110
            -69 callsubr
            hintmask 11000101
            -20 callgsubr
            return
          </CharString>
          <CharString index="18">
            -27 -72 callsubr
            11 callsubr
            -59 callgsubr
            -43 68 125 130 -82 82 hintmask 1011110010000000
            335 500 rmoveto
            -68 49 -238 vlineto
            -199 -125 rlineto
            431 -25 callsubr
            hintmask 1011101001000000
            -68 callgsubr
            hintmask 1011100110000000
            -173 hlineto
            hintmask 0111100110000000
            67 -68 -51 callgsubr
            return
          </CharString>
          <CharString index="19">
            483 -24 callsubr
            68 -348 vlineto
            -69 -16 -25 -63 hvcurveto
            -351 vlineto
            -40 32 -31 40 15 15 4 9 15 vhcurveto
            171 108 rlineto
            -261 return
          </CharString>
          <CharString index="20">
            -77 callgsubr
            -317 vlineto
            -75 -23 -56 -52 hvcurveto
            -535 vlineto
            -59 27 -48 81 vhcurveto
            return
          </CharString>
          <CharString index="21">
            17 callgsubr
            442 -20 192 68 -93 callgsubr
            hintmask 11110001
            464 68 rmoveto
            363 vlineto
            51 -34 28 -38 -14 -15 -4 -8 -13 vhcurveto
            -166 -104 rlineto
            356 -144 -68 vlineto
            hintmask 11100110
            -85 callgsubr
            hintmask 11110010
            -36 callgsubr
            hintmask 11101010
            -48 callsubr
            hintmask 11110001
            -49 245 hlineto
            199 125 rlineto
            -370 vlineto
            hintmask 11110010
            -48 -68 -48 callsubr
            return
          </CharString>
          <CharString index="22">
            -59 callgsubr
            150 130 -81 81 -81 144 return
          </CharString>
          <CharString index="23">
            65 -101 callsubr
            return
          </CharString>
          <CharString index="24">
            -63 -68 210 return
          </CharString>
          <CharString index="25">
            28 callgsubr
            26 callsubr
            hintmask 10011100
            129 348 rmoveto
            84 180 vlineto
            hintmask 01101100
            -94 callsubr
            hintmask 10101010
            -83 -180 vlineto
            hintmask 01101010
            83 -68 -151 242 vlineto
            68 18 40 48 hvcurveto
            62 vlineto
            44 -35 14 -55 34 vhcurveto
            endchar
          </CharString>
          <CharString index="26">
            15 0 69 614 67 hstem
            2 callgsubr
            86 81 45 80 vstem
            372 476 rmoveto
            185 vlineto
            56 -32 33 -70 vhcurveto
            -209 -67 62 -615 -63 -68 348 hlineto
            74 15 41 47 hvcurveto
            318 vlineto
            58 -34 28 -38 -16 -18 -4 -9 -15 vhcurveto
            -171 -108 rmoveto
            312 86 -258 vlineto
            126 -356 rmoveto
            -212 222 hlineto
            212 133 rlineto
            endchar
          </CharString>
          <CharString index="27">
            rlineto
            73 hlineto
            endchar
          </CharString>
          <CharString index="28">
            68 -210 -68 return
          </CharString>
          <CharString index="29">
            -61 callsubr
            380 -65 callgsubr
            return
          </CharString>
          <CharString index="30">
            0 -65 callsubr
            return
          </CharString>
          <CharString index="31">
            -14 callsubr
            -69 250 -23 callsubr
            188 68 hintmask 01100110
            386 126 rmoveto
            -68 hlineto
            hintmask 10010110
            -32 callsubr
            vlineto
            hintmask 10100110
            -81 callgsubr
            hintmask 01001110
            return
          </CharString>
          <CharString index="32">
            hlineto
            221 138 rlineto
            74 46 29 8 83 vvcurveto
            73 vlineto
            99 -24 25 -88 vhcurveto
            39 -237 rmoveto
            -251 -155 rlineto
            323 251 vlineto
            endchar
          </CharString>
          <CharString index="33">
            -50 callgsubr
            -15 callsubr
            vlineto
            hintmask 11101010
            61 -261 -278 261 11 callgsubr
            61 -15 callsubr
            hlineto
            hintmask 11101100
            63 -614 11 callgsubr
            -63 -31 callsubr
            hintmask 11101010
            0 callsubr
            hintmask 11110100
            -61 -31 callsubr
            hintmask 11110010
            15 callsubr
            endchar
          </CharString>
          <CharString index="34">
            -108 -53 102 hlineto
            56 12 31 37 hvcurveto
            37 vlineto
            43 -24 27 -50 vhcurveto
            -37 return
          </CharString>
          <CharString index="35">
            -219 69 -69 136 73 15 callgsubr
            return
          </CharString>
          <CharString index="36">
            -68 -67 callsubr
            -63 -68 469 vlineto
            return
          </CharString>
          <CharString index="37">
            0 -45 callgsubr
            -23 callsubr
            188 68 hintmask 01101100
            386 126 rmoveto
            -68 hlineto
            hintmask 10011100
            -32 callsubr
            vlineto
            hintmask 10101100
            -81 callgsubr
            endchar
          </CharString>
          <CharString index="38">
            -65 18 callgsubr
            106 65 171 -275 rlineto
            -54 -68 198 68 hlineto
            -421 614 rmoveto
            return
          </CharString>
          <CharString index="39">
            68 rmoveto
            -217 322 208 292 rlineto
            67 68 -108 hlineto
            -255 -347 rlineto
            32 callsubr
            vlineto
            hintmask 11010000
            -85 callgsubr
            hintmask 11100000
            -95 callgsubr
            hintmask 11010000
            -65 305 hlineto
            -11 callsubr
            endchar
          </CharString>
          <CharString index="40">
            63 -614 return
          </CharString>
          <CharString index="41">
            rmoveto
            -74 hlineto
            -41 callsubr
            return
          </CharString>
          <CharString index="42">
            68 364 68 return
          </CharString>
          <CharString index="43">
            rmoveto
            255 63 -255 hlineto
            endchar
          </CharString>
          <CharString index="44">
            hstemhm
            -84 callsubr
            return
          </CharString>
          <CharString index="45">
            0 68 306 7 callsubr
            return
          </CharString>
          <CharString index="46">
            0 -67 callgsubr
            return
          </CharString>
          <CharString index="47">
            -13 -12 -3 -7 -11 hvcurveto
            -166 -104 rlineto
            104 -144 -67 vlineto
            return
          </CharString>
          <CharString index="48">
            -42 callgsubr
            hlineto
            return
          </CharString>
          <CharString index="49">
            -123 rlineto
            return
          </CharString>
          <CharString index="50">
            -105 -58 callsubr
            -73 hlineto
            endchar
          </CharString>
          <CharString index="51">
            hstemhm
            128 82 141 68 47 68 return
          </CharString>
          <CharString index="52">
            -167 197 163 167 rlineto
            55 68 -78 hlineto
            -228 -224 rlineto
            return
          </CharString>
          <CharString index="53">
            -53 -45 -46 -55 vhcurveto
            return
          </CharString>
          <CharString index="54">
            -79 callsubr
            hlineto
            return
          </CharString>
          <CharString index="55">
            260 161 rmoveto
            -33 -93 rlineto
            -87 -68 56 hlineto
            65 29 37 62 22 hvcurveto
            206 583 rlineto
            53 68 -193 -68 67 hlineto
            -148 -419 -150 419 rlineto
            52 68 -174 -68 51 hlineto
            return
          </CharString>
          <CharString index="56">
            71 24 25 93 hvcurveto
            58 vlineto
            57 -29 45 -65 40 vhcurveto
            return
          </CharString>
          <CharString index="57">
            -20 hstemhm
            114 78 -78 173 hintmask 11110000
            114 -50 callgsubr
            -182 -74 -72 74 -324 vlineto
            -75 29 -29 60 vhcurveto
            hintmask 11101000
            84 68 3 callgsubr
            -95 360 81 72 -81 182 hlineto
            return
          </CharString>
          <CharString index="58">
            53 50 27 64 hvcurveto
            170 vlineto
            return
          </CharString>
          <CharString index="59">
            193 68 hlineto
            return
          </CharString>
          <CharString index="60">
            0 -92 callgsubr
            -63 callsubr
            return
          </CharString>
          <CharString index="61">
            407 68 rmoveto
            -265 614 265 return
          </CharString>
          <CharString index="62">
            61 -38 16 -40 -13 -12 -3 -7 -11 vhcurveto
            return
          </CharString>
          <CharString index="63">
            -172 0 -92 callgsubr
            return
          </CharString>
          <CharString index="64">
            -145 -68 return
          </CharString>
          <CharString index="65">
            -25 callgsubr
            -144 193 -130 81 156 81 return
          </CharString>
          <CharString index="66">
            -75 -240 rlineto
            73 hlineto
            return
          </CharString>
          <CharString index="67">
            67 25 30 56 hvcurveto
            return
          </CharString>
          <CharString index="68">
            -199 -62 callgsubr
            253 240 -24 callgsubr
          </CharString>
          <CharString index="69">
            112 279 vlineto
            -377 -610 rlineto
            -72 451 return
          </CharString>
          <CharString index="70">
            -196 82 hlineto
            196 123 rlineto
            endchar
          </CharString>
          <CharString index="71">
            rmoveto
            127 172 -57 40 -154 -212 156 -197 55 41 rlineto
            return
          </CharString>
          <CharString index="72">
            -118 73 186 -479 -186 72 return
          </CharString>
          <CharString index="73">
            204 68 -60 184 hlineto
            217 -252 rlineto
            return
          </CharString>
          <CharString index="74">
            -49 247 hlineto
            199 125 rlineto
            -372 vlineto
            return
          </CharString>
          <CharString index="75">
            -58 -188 364 188 return
          </CharString>
          <CharString index="76">
            -68 206 68 hlineto
            return
          </CharString>
          <CharString index="77">
            195 -58 callgsubr
            -43 callsubr
            hlineto
            return
          </CharString>
          <CharString index="78">
            -23 callsubr
            205 80 return
          </CharString>
          <CharString index="79">
            2 -24 callsubr
            127 hlineto
            -109 -364 rlineto
            -18 hlineto
            209 364 rmoveto
            -364 -119 vlineto
            109 364 rlineto
            return
          </CharString>
          <CharString index="80">
            71 203 vlineto
            -277 -363 rlineto
            -69 vlineto
            return
          </CharString>
          <CharString index="81">
            hstemhm
            50 -91 callsubr
            hintmask 11110000
            195 return
          </CharString>
          <CharString index="82">
            -43 callsubr
            vlineto
            return
          </CharString>
          <CharString index="83">
            432 rmoveto
            return
          </CharString>
          <CharString index="84">
            hstemhm
            50 80 return
          </CharString>
          <CharString index="85">
            254 58 rmoveto
            184 -83 hlineto
            -184 -113 rlineto
            -78 -168 rmoveto
            -188 80 hlineto
            188 111 rlineto
            return
          </CharString>
          <CharString index="86">
            -49 264 hlineto
            156 99 rlineto
            -97 vlineto
            return
          </CharString>
          <CharString index="87">
            hstem
            25 162 49 82 54 159 vstem
            return
          </CharString>
          <CharString index="88">
            0 -92 callgsubr
            11 callsubr
            return
          </CharString>
          <CharString index="89">
            0 68 286 67 261 68 return
          </CharString>
          <CharString index="90">
            40 81 209 81 return
          </CharString>
          <CharString index="91">
            0 182 hstemhm
            return
          </CharString>
          <CharString index="92">
            68 -206 -68 return
          </CharString>
          <CharString index="93">
            -116 0 -45 callgsubr
            return
          </CharString>
          <CharString index="94">
            vlineto
            -87 34 -47 103 vhcurveto
            147 hlineto
            99 42 47 87 hvcurveto
            170 vlineto
            67 -48 36 -32 2 vhcurveto
            return
          </CharString>
          <CharString index="95">
            -97 rmoveto
            hintmask 1110101011000000
            108 -67 hlineto
            return
          </CharString>
          <CharString index="96">
            251 -373 rlineto
            114 68 hlineto
            return
          </CharString>
          <CharString index="97">
            206 -143 82 return
          </CharString>
          <CharString index="98">
            hlineto
            -32 callgsubr
            hintmask 11011000
            -65 return
          </CharString>
          <CharString index="99">
            -27 -23 -24 -27 -30 23 -22 26 30 22 22 30 return
          </CharString>
          <CharString index="100">
            190 21 -21 432 68 return
          </CharString>
          <CharString index="101">
            294 21 -21 682 68 return
          </CharString>
          <CharString index="102">
            58 196 -74 return
          </CharString>
          <CharString index="103">
            65 68 -210 return
          </CharString>
          <CharString index="104">
            71 358 71 hstemhm
            45 197 -133 77 125 189 -133 77 126 return
          </CharString>
          <CharString index="105">
            hintmask 11101000
            195 -63 callgsubr
            return
          </CharString>
          <CharString index="106">
            -217 53 67 55 42 68 -68 return
          </CharString>
          <CharString index="107">
            -61 286 278 -286 hlineto
            return
          </CharString>
          <CharString index="108">
            61 -38 16 -40 vhcurveto
            return
          </CharString>
          <CharString index="109">
            63 -364 hlineto
            hintmask 11101000
            -36 callgsubr
            hintmask 11100100
            22 callsubr
            return
          </CharString>
          <CharString index="110">
            hlineto
            hintmask 11100000
            -36 callgsubr
            hintmask 11010000
            -59 callsubr
            hintmask 11100000
            -65 hlineto
            endchar
          </CharString>
          <CharString index="111">
            -61 callsubr
            497 68 -63 callsubr
            -42 callgsubr
            return
          </CharString>
          <CharString index="112">
            -212 -132 rlineto
            369 212 vlineto
            return
          </CharString>
          <CharString index="113">
            -166 -105 rlineto
            199 return
          </CharString>
          <CharString index="114">
            126 -68 68 return
          </CharString>
          <CharString index="115">
            210 vlineto
            return
          </CharString>
          <CharString index="116">
            hstemhm
            45 199 -135 77 return
          </CharString>
          <CharString index="117">
            180 68 -68 80 return
          </CharString>
          <CharString index="118">
            182 -20 return
          </CharString>
          <CharString index="119">
            354 66 hstem
            80 420 rmoveto
            -66 return
          </CharString>
          <CharString index="120">
            68 hstem
            2 callgsubr
            257 82 vstem
            return
          </CharString>
          <CharString index="121">
            -21 123 -20 return
          </CharString>
          <CharString index="122">
            -63 614 hlineto
            return
          </CharString>
          <CharString index="123">
            63 420 -20 return
          </CharString>
          <CharString index="124">
            65 -614 return
          </CharString>
          <CharString index="125">
            481 vlineto
            return
          </CharString>
          <CharString index="126">
            196 67 -196 263 -76 -263 -197 -67 197 return
          </CharString>
          <CharString index="127">
            -49 callsubr
            -29 callgsubr
            return
          </CharString>
          <CharString index="128">
            hstemhm
            65 -8 callgsubr
            return
          </CharString>
          <CharString index="129">
            -59 callsubr
            hintmask 11101000
            -65 hlineto
            return
          </CharString>
          <CharString index="130">
            -64 -70 140 hlineto
            219 369 rlineto
            -369 vlineto
            return
          </CharString>
          <CharString index="131">
            72 182 68 hstemhm
            120 78 -78 211 80 68 return
          </CharString>
          <CharString index="132">
            532 69 rmoveto
            284 168 67 -168 262 return
          </CharString>
          <CharString index="133">
            hstemhm
            50 79 10 callsubr
            return
          </CharString>
          <CharString index="134">
            hstemhm
            50 78 -42 68 184 82 return
          </CharString>
          <CharString index="135">
            78 -67 -146 250 vlineto
            77 8 41 47 hvcurveto
            return
          </CharString>
          <CharString index="136">
            17 callgsubr
            365 67 return
          </CharString>
          <CharString index="137">
            -68 68 -16 callsubr
            return
          </CharString>
          <CharString index="138">
            hstemhm
            1 callgsubr
            return
          </CharString>
          <CharString index="139">
            279 69 -79 callsubr
            return
          </CharString>
          <CharString index="140">
            hstemhm
            2 callgsubr
            272 82 return
          </CharString>
          <CharString index="141">
            148 -82 82 -82 145 return
          </CharString>
          <CharString index="142">
            -63 callgsubr
            hintmask 11100100
            63 return
          </CharString>
          <CharString index="143">
            65 -362 hlineto
            hintmask 11010100
            -65 hlineto
            endchar
          </CharString>
          <CharString index="144">
            424 69 rmoveto
            681 -148 -68 vlineto
            return
          </CharString>
          <CharString index="145">
            213 -68 68 hstemhm
            25 72 127 82 return
          </CharString>
          <CharString index="146">
            73 hlineto
            -47 callgsubr
          </CharString>
        <CharString name=".notdef">
          -42 endchar
        </CharString>
        <CharString name="A">
          -49 callgsubr
          hstem
          25 195 201 195 vstem
          -107 callsubr
          endchar
        </CharString>
        <CharString name="AE">
          314 -61 callsubr
          168 67 145 -65 callgsubr
          hstemhm
          44 194 212 82 179 68 hintmask 10101111
          25 callsubr
          179 vlineto
          hintmask 10110111
          -77 callgsubr
          -538 vlineto
          hintmask 10101111
          -68 79 vlineto
          -14 callgsubr
          hlineto
          hintmask 01110111
          -74 callgsubr
          vlineto
          hintmask 10101111
          -117 vlineto
          -316 614 rmoveto
          55 -262 -148 hlineto
          endchar
        </CharString>
        <CharString name="AEacute">
          314 0 70 283 67 145 27 callgsubr
          44 194 212 82 179 68 hintmask 11001111
          25 callsubr
          vlineto
          hintmask 11010111
          179 -77 callgsubr
          -538 -68 79 hlineto
          -14 callgsubr
          -74 callgsubr
          hlineto
          hintmask 11100111
          -117 vlineto
          -316 614 rmoveto
          hintmask 11010111
          55 -262 -148 hlineto
          37 389 rmoveto
          39 callsubr
        </CharString>
        <CharString name="Aacute">
          99 0 68 0 199 0 63 420 182 hstem
          25 195 201 195 vstem
          -107 callsubr
          -385 741 rmoveto
          39 callsubr
        </CharString>
        <CharString name="Abreve">
          -49 callgsubr
          64 -43 callgsubr
          25 195 -53 53 201 53 -53 195 hintmask 1111010100000000
          551 68 rmoveto
          -171 682 rlineto
          -118 hlineto
          -174 -682 rlineto
          -63 -13 callgsubr
          -55 hlineto
          50 199 rlineto
          18 callgsubr
          50 -199 rlineto
          -54 -68 hlineto
          hintmask 1110110010000000
          195 68 hlineto
          -385 262 rmoveto
          89 352 89 -352 rlineto
          12 617 rmoveto
          hintmask 1111010100000000
          -54 callsubr
          hintmask 1110101100000000
          -103 callgsubr
        </CharString>
        <CharString name="Acircumflex">
          -49 callgsubr
          202 -20 hstem
          25 195 201 195 vstem
          -107 callsubr
          -260 864 -106 callgsubr
        </CharString>
        <CharString name="Adieresis">
          -49 callgsubr
          78 88 hstemhm
          25 195 -17 86 62 86 -16 195 hintmask 11111001
          -107 callsubr
          hintmask 11110110
          -327 784 rmoveto
          -107 callgsubr
          148 hmoveto
          -107 callgsubr
          endchar
        </CharString>
        <CharString name="Agrave">
          -49 callgsubr
          202 -20 hstem
          25 195 201 195 vstem
          -107 callsubr
          -314 864 rmoveto
          -71 hlineto
          105 -123 -80 callsubr
        </CharString>
        <CharString name="Amacron">
          -49 callgsubr
          95 63 hstem
          25 195 201 195 vstem
          -107 callsubr
          -423 757 -64 callsubr
        </CharString>
        <CharString name="Aogonek">
          99 -9 callgsubr
          68 0 199 0 16 callsubr
          hstemhm
          25 195 201 195 hintmask 11011110
          231 330 rmoveto
          89 352 89 -352 rlineto
          hintmask 10101110
          142 -262 rmoveto
          -171 682 rlineto
          -118 hlineto
          -174 -682 rlineto
          -63 hlineto
          hintmask 11011110
          -13 callgsubr
          -55 vlineto
          hintmask 10101110
          50 199 rlineto
          18 callgsubr
          50 -199 rlineto
          -54 hlineto
          hintmask 11011110
          -13 callgsubr
          vlineto
          -68 vmoveto
          -99 callsubr
        </CharString>
        <CharString name="Aring">
          -49 callgsubr
          54 49 81 48 hstem
          25 195 11 49 81 48 12 195 vstem
          -107 callsubr
          -385 805 rmoveto
          -96 callsubr
        </CharString>
        <CharString name="Atilde">
          -49 callgsubr
          81 16 callgsubr
          25 195 201 195 hintmask 11110110
          -107 callsubr
          -169 848 -56 callgsubr
          hintmask 11101110
          -101 callgsubr
          hintmask 11110110
          -89 callgsubr
        </CharString>
        <CharString name="B">
          -81 callsubr
        </CharString>
        <CharString name="C">
          -17 -78 callsubr
          hstemhm
          60 82 265 68 hintmask 10011100
          -46 callsubr
          hlineto
          hintmask 10101100
          -87 callsubr
          307 hlineto
          hintmask 01101100
          -74 callgsubr
          vlineto
          endchar
        </CharString>
        <CharString name="CR">
          -42 endchar
        </CharString>
        <CharString name="Cacute">
          -17 0 68 497 27 callgsubr
          60 82 265 68 hintmask 10011100
          -46 callsubr
          -77 callgsubr
          -317 hlineto
          -75 -23 -56 -52 hvcurveto
          -535 vlineto
          -59 27 -48 81 vhcurveto
          307 hlineto
          hintmask 11001100
          -74 callgsubr
          vlineto
          -234 624 rmoveto
          73 hlineto
          105 123 rlineto
          hintmask 10101100
          -71 hlineto
          endchar
        </CharString>
        <CharString name="Ccaron">
          -17 -78 callsubr
          -68 -23 callgsubr
          60 82 265 68 hintmask 10010110
          -46 callsubr
          hlineto
          hintmask 10100110
          -87 callsubr
          307 hlineto
          hintmask 01100110
          -74 callgsubr
          vlineto
          hintmask 10001110
          -2 747 -103 callsubr
          endchar
        </CharString>
        <CharString name="Ccedilla">
          -17 -1 callsubr
          185 380 -65 callgsubr
          hstemhm
          60 82 35 170 -62 62 60 68 hintmask 1110101101000000
          177 -12 callsubr
          hintmask 1110101101000000
          -73 callsubr
          42 239 hlineto
          hintmask 1101101101000000
          -74 callgsubr
          vlineto
          hintmask 1110011101000000
          -117 -265 614 265 vlineto
          hintmask 1110101101000000
          -87 callsubr
          9 hlineto
          endchar
        </CharString>
        <CharString name="Ccircumflex">
          -17 -78 callsubr
          -68 -23 callgsubr
          60 82 265 68 hintmask 10010110
          -46 callsubr
          hlineto
          hintmask 10100110
          -87 callsubr
          307 hlineto
          hintmask 01100110
          -74 callgsubr
          vlineto
          hintmask 10001110
          -109 747 -106 callgsubr
        </CharString>
        <CharString name="Cdotaccent">
          -17 -78 callsubr
          80 88 hstemhm
          60 82 77 86 102 68 hintmask 10011111
          -46 callsubr
          hlineto
          hintmask 10101111
          -87 callsubr
          307 hlineto
          hintmask 01101111
          -74 callgsubr
          vlineto
          hintmask 10101111
          -102 689 rmoveto
          -107 callgsubr
          endchar
        </CharString>
        <CharString name="D">
          62 0 68 614 13 callsubr
          -39 callgsubr
          endchar
        </CharString>
        <CharString name="Dcaron">
          62 -10 callgsubr
          2 callgsubr
          257 82 hintmask 11011000
          -39 callgsubr
          hintmask 10111000
          -17 250 -103 callsubr
          endchar
        </CharString>
        <CharString name="Dcroat">
          62 0 68 286 66 262 13 callsubr
          53 354 rmoveto
          70 -286 -63 -68 353 hlineto
          -37 callgsubr
          -353 -68 63 -262 -70 hlineto
          409 -352 rmoveto
          -257 286 123 66 -123 262 257 hlineto
          endchar
        </CharString>
        <CharString name="E">
          42 -61 callsubr
          169 -53 callgsubr
          -56 callsubr
          hintmask 10101111
          -88 callgsubr
          vlineto
          hintmask 10110111
          -77 callgsubr
          -469 vlineto
          hintmask 10101111
          -71 callsubr
          hintmask 01110111
          -74 callgsubr
          vlineto
          hintmask 10110111
          -92 callsubr
          endchar
        </CharString>
        <CharString name="Eacute">
          42 0 68 0 215 71 68 71 189 -117 185 -68 68 0 182 -56 callsubr
          hintmask 0111001111000000
          -88 callgsubr
          -77 callgsubr
          -469 -68 -67 callsubr
          -63 vlineto
          hintmask 1010010111000000
          -68 469 -74 callgsubr
          -117 -256 286 141 vlineto
          hintmask 1010100111000000
          -71 68 vlineto
          hintmask 1010010111000000
          8 callsubr
          hintmask 1011001111000000
          -216 316 rmoveto
          39 callsubr
        </CharString>
        <CharString name="Ebreve">
          42 -61 callsubr
          169 -53 callgsubr
          -40 callgsubr
          128 63 -63 82 141 68 -27 53 21 68 hintmask 1010110011010000
          -88 callgsubr
          vlineto
          hintmask 1011010101010000
          -77 callgsubr
          -469 vlineto
          hintmask 1010110101010000
          -71 callsubr
          hintmask 0111010101010000
          -74 callgsubr
          vlineto
          hintmask 1011001011010000
          -92 callsubr
          hintmask 1011001100110000
          -27 454 rmoveto
          hintmask 1011010101010000
          -54 callsubr
          hintmask 1011001100110000
          -103 callgsubr
        </CharString>
        <CharString name="Ecaron">
          42 -61 callsubr
          169 -53 callgsubr
          -68 250 -56 callsubr
          hintmask 1010101110000000
          -88 callgsubr
          vlineto
          hintmask 1011001110000000
          -77 callgsubr
          -469 vlineto
          hintmask 1010101110000000
          -71 callsubr
          hintmask 0111001110000000
          -74 callgsubr
          vlineto
          hintmask 1010011110000000
          -92 callsubr
          16 439 -103 callsubr
          endchar
        </CharString>
        <CharString name="Ecircumflex">
          42 -61 callsubr
          169 -53 callgsubr
          -68 250 -56 callsubr
          hintmask 1010101110000000
          -88 callgsubr
          vlineto
          hintmask 1011001110000000
          -77 callgsubr
          -469 vlineto
          hintmask 1010101110000000
          -71 callsubr
          hintmask 0111001110000000
          -74 callgsubr
          vlineto
          hintmask 1010011110000000
          -92 callsubr
          -91 439 -106 callgsubr
        </CharString>
        <CharString name="Edieresis">
          42 -61 callsubr
          169 -53 callgsubr
          58 88 hstemhm
          128 82 -35 86 62 96 -68 68 47 68 hintmask 1010111001100000
          -88 callgsubr
          vlineto
          hintmask 1011011010100000
          -77 callgsubr
          -469 vlineto
          hintmask 1010111010100000
          -71 callsubr
          hintmask 0111011010100000
          -74 callgsubr
          vlineto
          hintmask 1011011001100000
          -92 callsubr
          hintmask 1011010110100000
          -158 359 rmoveto
          -107 callgsubr
          148 hmoveto
          -107 callgsubr
          endchar
        </CharString>
        <CharString name="Edotaccent">
          42 -61 callsubr
          169 -53 callgsubr
          80 88 hstemhm
          128 82 39 86 16 68 47 68 hintmask 1010111111000000
          -88 callgsubr
          vlineto
          hintmask 1011011111000000
          -77 callgsubr
          -469 vlineto
          hintmask 1010111111000000
          -71 callsubr
          hintmask 0111011111000000
          -74 callgsubr
          vlineto
          hintmask 1011011111000000
          -92 callsubr
          -84 381 rmoveto
          -107 callgsubr
          endchar
        </CharString>
        <CharString name="Egrave">
          42 -61 callsubr
          169 -53 callgsubr
          -68 250 -56 callsubr
          hintmask 1010101110000000
          -88 callgsubr
          vlineto
          hintmask 1011001110000000
          -77 callgsubr
          -469 vlineto
          hintmask 1010101110000000
          -71 callsubr
          hintmask 0111001110000000
          -74 callgsubr
          vlineto
          hintmask 1010011110000000
          -92 callsubr
          -145 439 rmoveto
          -71 hlineto
          105 -123 -80 callsubr
        </CharString>
        <CharString name="Emacron">
          42 -61 callsubr
          169 -53 callgsubr
          75 63 -56 callsubr
          hintmask 1010111110000000
          -88 callgsubr
          vlineto
          hintmask 1011011110000000
          -77 callgsubr
          -469 vlineto
          hintmask 1010111110000000
          -71 callsubr
          hintmask 0111011110000000
          -74 callgsubr
          vlineto
          hintmask 1011011110000000
          -92 callsubr
          -255 332 -64 callsubr
        </CharString>
        <CharString name="Eng">
          177 -217 68 149 -92 callgsubr
          -63 callsubr
          299 82 hintmask 11110100
          654 -58 callgsubr
          -210 -68 65 -495 hlineto
          -290 563 14 callgsubr
          hlineto
          hintmask 11101100
          63 -614 11 callgsubr
          -95 callgsubr
          hintmask 11101100
          -65 516 hlineto
          299 -582 rlineto
          -151 -174 -68 149 vlineto
          84 23 63 54 hvcurveto
          782 63 vlineto
          endchar
        </CharString>
        <CharString name="Eogonek">
          42 -9 callgsubr
          185 -117 215 71 68 71 189 0 68 -56 callsubr
          hintmask 1011101110000000
          -88 callgsubr
          -117 68 vlineto
          hintmask 1011011110000000
          185 -469 -68 -67 callsubr
          -63 vlineto
          hintmask 1101101110000000
          -68 469 -74 callgsubr
          vlineto
          hintmask 1011101110000000
          -92 callsubr
          hintmask 1101101110000000
          115 -493 rmoveto
          -99 callsubr
        </CharString>
        <CharString name="Eth">
          62 0 68 287 66 261 13 callsubr
          56 421 rmoveto
          -66 67 -287 -63 -68 353 vlineto
          -37 callgsubr
          -353 -68 63 -261 hlineto
          339 -353 rmoveto
          -257 287 142 66 -142 261 257 hlineto
          endchar
        </CharString>
        <CharString name="Euro">
          23 0 68 -68 132 128 67 107 67 114 135 -68 68 hstemhm
          100 82 265 68 hintmask 10111011
          40 434 rmoveto
          60 -107 -60 -67 60 -153 hlineto
          -59 27 -48 81 vhcurveto
          307 hlineto
          hintmask 01111011
          132 -68 vlineto
          hintmask 10110111
          -64 -265 192 248 67 -248 107 248 67 -248 181 265 vlineto
          hintmask 10111011
          -67 68 135 -317 vlineto
          -75 -23 -56 -52 hvcurveto
          -141 -60 vlineto
          endchar
        </CharString>
        <CharString name="F">
          42 0 68 286 -53 callgsubr
          -63 callsubr
          141 68 47 68 hintmask 11010111
          351 283 rmoveto
          68 210 -68 -71 -141 260 256 hlineto
          hintmask 11101011
          -77 callgsubr
          -469 vlineto
          hintmask 11011011
          -68 vlineto
          hintmask 11010111
          -85 callgsubr
          hintmask 11101011
          -95 callgsubr
          hintmask 11100111
          -65 286 141 hlineto
          endchar
        </CharString>
        <CharString name="G">
          0 68 497 -65 callgsubr
          13 callgsubr
          hintmask 10111000
          482 -58 callgsubr
          -315 hlineto
          -84 -23 -54 -61 hvcurveto
          -511 vlineto
          -96 32 -28 93 vhcurveto
          297 425 hlineto
          -219 -137 rlineto
          -73 vlineto
          hintmask 10110100
          -46 callgsubr
          vlineto
          hintmask 11010100
          -117 80 vlineto
          endchar
        </CharString>
        <CharString name="Gbreve">
          0 68 497 -65 callgsubr
          -40 callgsubr
          60 82 -25 53 93 219 -111 53 -22 80 hintmask 1011010100000000
          482 -58 callgsubr
          -315 hlineto
          -84 -23 -54 -61 hvcurveto
          -511 vlineto
          -96 32 -28 93 vhcurveto
          297 425 hlineto
          -219 -137 rlineto
          -73 vlineto
          hintmask 1011010001000000
          -46 callgsubr
          vlineto
          hintmask 1100110001000000
          -117 80 vlineto
          hintmask 1100110010000000
          -111 382 rmoveto
          hintmask 1101010100000000
          -54 callsubr
          hintmask 1100101010000000
          -103 callgsubr
        </CharString>
        <CharString name="Gcircumflex">
          0 68 497 -65 callgsubr
          -68 250 13 callgsubr
          hintmask 10101100
          482 -58 callgsubr
          -315 hlineto
          -84 -23 -54 -61 hvcurveto
          -511 vlineto
          -96 32 -28 93 vhcurveto
          297 425 hlineto
          -219 -137 rlineto
          -73 vlineto
          hintmask 10101010
          -46 callgsubr
          vlineto
          hintmask 11001010
          -117 80 vlineto
          hintmask 10011100
          -175 367 -106 callgsubr
        </CharString>
        <CharString name="Gdotaccent">
          0 68 497 -65 callgsubr
          80 88 hstemhm
          60 82 86 86 -51 219 -80 80 hintmask 10111010
          482 -58 callgsubr
          -315 hlineto
          -84 -23 -54 -61 hvcurveto
          -511 vlineto
          -96 32 -28 93 vhcurveto
          297 425 hlineto
          -219 -137 rlineto
          -73 vlineto
          hintmask 10111101
          -46 callgsubr
          vlineto
          hintmask 11011101
          -117 80 vlineto
          -168 309 rmoveto
          -107 callgsubr
          endchar
        </CharString>
        <CharString name="H">
          156 -18 callsubr
          21 callsubr
          hintmask 11110100
          633 -74 callsubr
        </CharString>
        <CharString name="Hbar">
          156 0 68 286 67 79 63 119 68 21 callsubr
          hintmask 11110110
          69 500 rmoveto
          59 -432 hlineto
          hintmask 11111010
          -63 -31 callsubr
          hintmask 11110101
          0 callsubr
          hintmask 11111010
          -61 -31 callsubr
          hintmask 11111001
          -63 432 60 63 -60 119 hlineto
          hintmask 11111010
          63 -15 callsubr
          hlineto
          hintmask 11110101
          61 -119 -278 119 hlineto
          hintmask 11111010
          61 -15 callsubr
          hlineto
          hintmask 11110101
          63 -119 -59 hlineto
          141 -142 rmoveto
          79 278 -79 vlineto
          endchar
        </CharString>
        <CharString name="Hcircumflex">
          156 -18 callsubr
          11 callsubr
          21 callsubr
          hintmask 11111010
          633 -50 callgsubr
          -15 callsubr
          vlineto
          hintmask 11110101
          61 -261 -278 261 hlineto
          hintmask 11111010
          61 -15 callsubr
          hlineto
          hintmask 11110110
          -85 callgsubr
          hintmask 11111010
          -63 -31 callsubr
          hintmask 11110101
          0 callsubr
          hintmask 11111010
          -61 -31 callsubr
          hintmask 11111001
          15 callsubr
          hintmask 11111010
          -185 250 -106 callgsubr
        </CharString>
        <CharString name="I">
          -44 callsubr
          hstemhm
          80 -101 callsubr
          hintmask 11010000
          225 -50 callgsubr
          hintmask 11100000
          65 -53 callsubr
          hintmask 11010000
          -85 callgsubr
          hintmask 11100000
          -95 callgsubr
          hintmask 11010000
          -65 hlineto
          endchar
        </CharString>
        <CharString name="Iacute">
          -44 callsubr
          -16 callsubr
          80 -101 callsubr
          hintmask 10101000
          225 -50 callgsubr
          65 -53 callsubr
          hintmask 11010000
          -67 callsubr
          -36 callgsubr
          hintmask 11001000
          -59 callsubr
          hintmask 11010000
          -65 hlineto
          hintmask 11001000
          -129 741 rmoveto
          39 callsubr
        </CharString>
        <CharString name="Ibreve">
          -44 callsubr
          -40 callgsubr
          31 53 -4 -101 callsubr
          60 53 hintmask 11101011
          225 -50 callgsubr
          hintmask 11100100
          65 -53 callsubr
          hintmask 11101011
          -85 callgsubr
          hintmask 11100100
          -95 callgsubr
          hintmask 11011011
          -65 hlineto
          60 879 rmoveto
          hintmask 11101011
          -54 callsubr
          hintmask 11011011
          -103 callgsubr
        </CharString>
        <CharString name="Icircumflex">
          -172 -19 callsubr
          hstemhm
          80 -101 callsubr
          hintmask 11101000
          225 -50 callgsubr
          hintmask 11110000
          65 -53 callsubr
          hintmask 11101000
          63 -614 3 callgsubr
          -63 -68 22 callsubr
          -4 864 -106 callgsubr
        </CharString>
        <CharString name="Idieresis">
          -44 callsubr
          58 88 hstemhm
          68 86 -74 -101 callsubr
          -9 86 hintmask 11100100
          225 -50 callgsubr
          hintmask 11101000
          65 -53 callsubr
          hintmask 11100100
          -85 callgsubr
          -32 callgsubr
          hintmask 11100100
          -65 hlineto
          hintmask 11110010
          -71 784 rmoveto
          -107 callgsubr
          148 hmoveto
          -107 callgsubr
          endchar
        </CharString>
        <CharString name="Idotaccent">
          -44 callsubr
          80 88 hstemhm
          80 -101 callsubr
          hintmask 11101000
          225 -50 callgsubr
          hintmask 11110000
          65 -53 callsubr
          hintmask 11101000
          63 -614 3 callgsubr
          -63 -68 22 callsubr
          3 806 rmoveto
          -107 callgsubr
          endchar
        </CharString>
        <CharString name="Igrave">
          -172 -10 callgsubr
          80 -101 callsubr
          hintmask 11001000
          225 -50 callgsubr
          hintmask 11010000
          65 -53 callsubr
          hintmask 10101000
          -85 callgsubr
          hintmask 11010000
          -95 callgsubr
          hintmask 11001000
          -65 hlineto
          hintmask 10110000
          -58 864 rmoveto
          -71 hlineto
          105 -123 -80 callsubr
        </CharString>
        <CharString name="Imacron">
          -44 callsubr
          75 63 hstemhm
          80 -101 callsubr
          hintmask 11101000
          225 -50 callgsubr
          hintmask 11110000
          65 -53 callsubr
          hintmask 11101000
          63 -614 3 callgsubr
          -63 -68 22 callsubr
          -168 757 -64 callsubr
        </CharString>
        <CharString name="Iogonek">
          -172 -9 callgsubr
          -92 callgsubr
          hstemhm
          80 -101 callsubr
          hintmask 11101000
          225 -50 callgsubr
          hintmask 11110000
          65 -53 callsubr
          hintmask 11101000
          63 -614 3 callgsubr
          -63 -68 22 callsubr
          hintmask 11110000
          65 -68 rmoveto
          -99 callsubr
        </CharString>
        <CharString name="Itilde">
          -172 36 callgsubr
          80 -101 callsubr
          hintmask 11100100
          225 -50 callgsubr
          hintmask 11101000
          65 -53 callsubr
          hintmask 11100100
          -85 callgsubr
          -32 callgsubr
          hintmask 11100100
          -65 hlineto
          87 848 -56 callgsubr
          hintmask 11011000
          -101 callgsubr
          hintmask 11101000
          -89 callgsubr
        </CharString>
        <CharString name="J">
          -136 -5 callgsubr
          194 82 vstem
          341 -58 callgsubr
          -211 -68 64 -614 -174 -68 149 hlineto
          84 23 63 54 hvcurveto
          565 65 vlineto
          endchar
        </CharString>
        <CharString name="Jcircumflex">
          -136 -19 callsubr
          hstem
          194 82 vstem
          341 -58 callgsubr
          -211 -68 64 -614 -174 -68 149 hlineto
          84 23 63 54 hvcurveto
          565 65 vlineto
          -71 250 -106 callgsubr
        </CharString>
        <CharString name="K">
          63 -47 callsubr
          hintmask 11100000
          511 -68 callsubr
        </CharString>
        <CharString name="L">
          -14 4 callsubr
          hintmask 01110100
          65 hmoveto
          423 -74 callgsubr
          hlineto
          hintmask 10101100
          9 callgsubr
          hintmask 10110100
          65 -53 callsubr
          hintmask 10101100
          -85 callgsubr
          hintmask 10110100
          -63 hlineto
          endchar
        </CharString>
        <CharString name="Lacute">
          -14 -19 callsubr
          -63 callsubr
          -42 callgsubr
          hintmask 11110100
          65 hmoveto
          423 -74 callgsubr
          -117 hlineto
          hintmask 11101100
          -210 614 11 callgsubr
          65 -53 callsubr
          hintmask 11101100
          -67 callsubr
          -63 11 callgsubr
          110 741 rmoveto
          39 callsubr
        </CharString>
        <CharString name="Lcaron">
          -14 -61 callsubr
          497 68 -68 232 -63 callsubr
          -42 callgsubr
          hintmask 10011010
          313 914 -103 callsubr
          -141 -791 rmoveto
          423 hlineto
          hintmask 01101010
          -74 callgsubr
          vlineto
          hintmask 10100110
          9 callgsubr
          hintmask 10101010
          65 -53 callsubr
          hintmask 10100110
          -85 callgsubr
          hintmask 10101010
          -63 hlineto
          endchar
        </CharString>
        <CharString name="Ldot">
          -14 -61 callsubr
          28 103 366 68 -63 callsubr
          65 101 44 68 hintmask 01111001
          65 hmoveto
          423 -74 callgsubr
          hlineto
          hintmask 10110111
          9 callgsubr
          hintmask 10111001
          65 -53 callsubr
          hintmask 10110111
          -85 callgsubr
          hintmask 10111001
          -63 hlineto
          hintmask 10110111
          311 196 -87 callgsubr
          endchar
        </CharString>
        <CharString name="Lslash">
          -14 -61 callsubr
          497 68 hstemhm
          45 165 -70 callgsubr
          -42 callgsubr
          hintmask 01101010
          65 hmoveto
          423 -74 callgsubr
          hlineto
          hintmask 10110010
          -117 -210 221 vlineto
          191 82 rlineto
          86 vlineto
          -191 -82 rlineto
          307 vlineto
          hintmask 10101010
          65 -53 callsubr
          hintmask 10100110
          63 -343 hlineto
          hintmask 10110010
          -83 -35 rlineto
          -86 vlineto
          hintmask 10100110
          83 35 rlineto
          -185 vlineto
          hintmask 10101010
          -63 hlineto
          endchar
        </CharString>
        <CharString name="M">
          -86 callgsubr
        </CharString>
        <CharString name="N">
          177 -47 callsubr
          299 82 hintmask 11101000
          -79 callgsubr
          hintmask 11011000
          63 -614 hlineto
          hintmask 11101000
          -63 -68 210 68 hlineto
          hintmask 11011000
          -54 callgsubr
          endchar
        </CharString>
        <CharString name="NULL">
          -542 endchar
        </CharString>
        <CharString name="Nacute">
          177 0 -92 callgsubr
          0 182 -63 callsubr
          299 82 hintmask 10110100
          654 -58 callgsubr
          -210 -68 65 hlineto
          hintmask 11001100
          -528 vlineto
          -18 callgsubr
          -85 callgsubr
          hintmask 11010100
          -95 callgsubr
          hintmask 11001100
          -65 516 hlineto
          hintmask 11010100
          283 -584 rlineto
          98 682 63 hlineto
          -384 127 rmoveto
          39 callsubr
        </CharString>
        <CharString name="Ncaron">
          177 -10 callgsubr
          65 210 -147 82 299 82 hintmask 11010100
          -79 callgsubr
          hintmask 11001100
          -85 callgsubr
          hintmask 11010100
          -95 callgsubr
          hintmask 11001100
          -54 callgsubr
          hintmask 10110100
          -152 250 -103 callsubr
          endchar
        </CharString>
        <CharString name="Ntilde">
          177 36 callgsubr
          65 210 -147 82 299 82 hintmask 11101010
          -79 callgsubr
          hintmask 11100110
          -85 callgsubr
          hintmask 11101010
          -95 callgsubr
          hintmask 11100110
          -54 callgsubr
          -168 234 -56 callgsubr
          hintmask 11011010
          -101 callgsubr
          hintmask 11101010
          -89 callgsubr
        </CharString>
        <CharString name="O">
          -5 callgsubr
          60 80 262 80 vstem
          -104 callgsubr
          endchar
        </CharString>
        <CharString name="OE">
          277 -78 callsubr
          hstemhm
          60 80 173 145 -82 82 233 68 hintmask 10011101
          171 -58 callgsubr
          -91 -20 -50 -83 hvcurveto
          -496 vlineto
          -73 27 -48 92 vhcurveto
          580 hlineto
          hintmask 01101101
          -74 callgsubr
          vlineto
          hintmask 10011101
          -117 -233 269 vlineto
          172 107 rlineto
          81 vlineto
          -172 -109 rlineto
          266 233 vlineto
          hintmask 10011011
          -77 callgsubr
          vlineto
          -619 -68 rmoveto
          236 -316 hlineto
          hintmask 10101101
          -63 -40 rlineto
          -81 vlineto
          hintmask 10011011
          63 40 rlineto
          -217 -236 vlineto
          endchar
        </CharString>
        <CharString name="Oacute">
          0 25 callgsubr
          hintmask 10111000
          171 -58 callgsubr
          -91 -20 -50 -83 hvcurveto
          -496 vlineto
          -73 27 -48 92 vhcurveto
          192 hlineto
          -48 callgsubr
          hintmask 11011000
          -97 callsubr
          42 741 rmoveto
          39 callsubr
        </CharString>
        <CharString name="Obreve">
          0 -92 callgsubr
          -40 callgsubr
          60 80 -23 53 201 53 -22 80 hintmask 11101010
          171 -58 callgsubr
          -91 -20 -50 -83 hvcurveto
          -496 vlineto
          -73 27 -48 92 vhcurveto
          192 hlineto
          hintmask 11011001
          -48 callgsubr
          -97 callsubr
          hintmask 11011010
          231 879 rmoveto
          hintmask 11101010
          -54 callsubr
          hintmask 11010110
          -103 callgsubr
        </CharString>
        <CharString name="Ocircumflex">
          -10 callgsubr
          60 80 262 80 hintmask 11011000
          -104 callgsubr
          hintmask 10111000
          167 864 -106 callgsubr
        </CharString>
        <CharString name="Odieresis">
          0 -92 callgsubr
          58 88 hstem
          60 80 14 86 62 86 14 80 vstem
          -104 callgsubr
          100 784 rmoveto
          -107 callgsubr
          148 hmoveto
          -107 callgsubr
          endchar
        </CharString>
        <CharString name="Ograve">
          -10 callgsubr
          60 80 262 80 hintmask 11011000
          -104 callgsubr
          hintmask 10111000
          113 864 rmoveto
          -71 hlineto
          105 -123 -80 callsubr
        </CharString>
        <CharString name="Ohungarumlaut">
          0 -92 callgsubr
          59 123 hstem
          60 80 262 80 vstem
          -104 callgsubr
          -33 741 -102 callgsubr
          42 -123 rmoveto
          39 callsubr
        </CharString>
        <CharString name="Omacron">
          0 -92 callgsubr
          75 63 hstem
          60 80 262 80 vstem
          -104 callgsubr
          3 757 -64 callsubr
        </CharString>
        <CharString name="Oslash">
          -76 144 -68 -92 callgsubr
          -68 135 hstemhm
          60 80 262 80 hintmask 10101100
          108 -76 rmoveto
          68 hlineto
          hintmask 01011100
          21 76 rlineto
          174 hlineto
          -48 callgsubr
          18 callsubr
          70 -23 43 -51 14 vhcurveto
          21 73 rlineto
          -67 hlineto
          hintmask 10101100
          -19 -67 rlineto
          -172 hlineto
          -91 -20 -50 -83 hvcurveto
          -496 vlineto
          -58 17 -43 54 -15 vhcurveto
          271 677 rmoveto
          -614 -185 vlineto
          174 614 rlineto
          -251 hmoveto
          183 hlineto
          -174 -614 rlineto
          -9 hlineto
          endchar
        </CharString>
        <CharString name="Oslashacute">
          -129 -21 150 25 callgsubr
          hintmask 11011100
          66 -150 rmoveto
          78 hlineto
          48 150 rlineto
          179 hlineto
          -48 callgsubr
          18 callsubr
          59 -16 40 -35 20 vhcurveto
          44 134 rlineto
          hintmask 11101100
          -77 hlineto
          -39 -120 rlineto
          -188 hlineto
          -91 -20 -50 -83 hvcurveto
          -496 vlineto
          -54 14 -40 44 -17 vhcurveto
          22 672 rmoveto
          197 hlineto
          -197 -605 rlineto
          74 -9 rmoveto
          188 577 rlineto
          -577 vlineto
          -220 741 rmoveto
          39 callsubr
        </CharString>
        <CharString name="Otilde">
          36 callgsubr
          60 80 262 80 hintmask 11101100
          -104 callgsubr
          258 848 -56 callgsubr
          hintmask 11011100
          -101 callgsubr
          hintmask 11101100
          -89 callgsubr
        </CharString>
        <CharString name="P">
          52 0 68 613 69 -63 callsubr
          251 73 hintmask 11101000
          422 -58 callgsubr
          -357 -69 hlineto
          hintmask 11011000
          63 -613 -9 callsubr
          210 -75 callsubr
        </CharString>
        <CharString name="Q">
          -60 178 -118 -92 callgsubr
          hstemhm
          60 80 91 80 91 80 cntrmask 00011100
          hintmask 01111100
          171 -58 callgsubr
          -91 -20 -50 -83 hvcurveto
          -496 vlineto
          -73 27 -48 92 vhcurveto
          52 hlineto
          hintmask 10111100
          -60 80 vlineto
          hintmask 01111100
          60 60 vlineto
          -48 callgsubr
          18 callsubr
          88 -35 45 -81 vhcurveto
          -135 -682 rmoveto
          -91 614 262 -614 -91 hlineto
          hintmask 10111100
          50 -80 vlineto
          endchar
        </CharString>
        <CharString name="R">
          104 -47 callsubr
          223 198 -170 73 hintmask 11100100
          575 68 -75 callgsubr
          hintmask 11011000
          63 -614 hlineto
          hintmask 11101000
          -63 -68 210 68 hlineto
          hintmask 11011000
          -69 callsubr
          hintmask 11010100
          -20 callgsubr
          endchar
        </CharString>
        <CharString name="Racute">
          -90 callsubr
          24 451 rmoveto
          73 hlineto
          105 123 rlineto
          hintmask 00110000
          -71 hlineto
          endchar
        </CharString>
        <CharString name="Rcaron">
          -90 callsubr
          hintmask 00110000
          256 574 -103 callsubr
          endchar
        </CharString>
        <CharString name="S">
          -83 callgsubr
        </CharString>
        <CharString name="Sacute">
          0 68 497 27 callgsubr
          60 80 262 80 hintmask 10011100
          -11 callgsubr
          -96 callgsubr
          -195 -270 117 -72 -185 319 vlineto
          -49 callsubr
          hintmask 11001100
          -29 callgsubr
          -206 442 rmoveto
          73 hlineto
          hintmask 10101100
          -47 callgsubr
        </CharString>
        <CharString name="Scaron">
          -84 callgsubr
          26 565 -103 callsubr
          endchar
        </CharString>
        <CharString name="Scedilla">
          -1 callsubr
          185 380 -65 callgsubr
          hstemhm
          60 80 46 170 -62 62 46 80 hintmask 1110101101000000
          186 -12 callsubr
          hintmask 1110011101000000
          -73 callsubr
          42 134 hlineto
          20 callsubr
          -248 155 rlineto
          160 261 vlineto
          hintmask 1110101101000000
          -96 callgsubr
          -195 -270 vlineto
          hintmask 1101101101000000
          117 -72 -185 126 vlineto
          endchar
        </CharString>
        <CharString name="Scircumflex">
          -84 callgsubr
          -81 565 -106 callgsubr
        </CharString>
        <CharString name="T">
          -64 callgsubr
        </CharString>
        <CharString name="Tbar">
          -13 0 68 288 63 145 186 -68 68 hstemhm
          -19 callgsubr
          hintmask 11011110
          137 356 rmoveto
          86 -288 -17 callgsubr
          288 87 63 -87 263 126 hlineto
          hintmask 11101110
          -35 callsubr
          vlineto
          hintmask 11011110
          118 126 -263 -86 vlineto
          endchar
        </CharString>
        <CharString name="Tcaron">
          -13 0 68 496 186 -68 68 -68 -23 callgsubr
          -19 callgsubr
          hintmask 10101110
          -26 callgsubr
          hlineto
          hintmask 11001110
          -35 callsubr
          vlineto
          hintmask 10101110
          118 126 -614 -63 vlineto
          hintmask 10011110
          247 864 -103 callsubr
          endchar
        </CharString>
        <CharString name="Thorn">
          52 0 68 482 69 62 69 -63 callsubr
          251 73 hintmask 11110100
          422 619 rmoveto
          -211 62 64 69 -210 -69 hlineto
          hintmask 11101100
          63 -613 11 callgsubr
          -95 callgsubr
          hintmask 11101100
          -65 79 -75 callsubr
        </CharString>
        <CharString name="U">
          -44 callgsubr
          hstem
          2 callgsubr
          272 82 vstem
          -105 callgsubr
          endchar
        </CharString>
        <CharString name="Uacute">
          -44 callgsubr
          0 182 33 callsubr
          hintmask 10111000
          60 23 callgsubr
          -583 hlineto
          -63 28 -36 61 vhcurveto
          257 hlineto
          60 30 32 72 hvcurveto
          hintmask 11011000
          578 63 -79 callsubr
          17 callsubr
          -272 614 -4 callsubr
          vlineto
          192 59 rmoveto
          39 callsubr
        </CharString>
        <CharString name="Ubreve">
          -44 callgsubr
          -40 callgsubr
          2 callgsubr
          -18 53 201 53 -17 82 hintmask 11011001
          -105 callgsubr
          hintmask 11011010
          381 197 rmoveto
          hintmask 11101010
          -54 callsubr
          hintmask 11010110
          -103 callgsubr
        </CharString>
        <CharString name="Ucircumflex">
          140 -19 callsubr
          hstem
          2 callgsubr
          272 82 vstem
          -105 callgsubr
          317 182 -106 callgsubr
        </CharString>
        <CharString name="Udieresis">
          -44 callgsubr
          58 88 hstem
          2 callgsubr
          19 86 62 86 19 82 vstem
          -105 callgsubr
          250 102 rmoveto
          -107 callgsubr
          148 hmoveto
          -107 callgsubr
          endchar
        </CharString>
        <CharString name="Ugrave">
          140 -10 callgsubr
          2 callgsubr
          272 82 hintmask 11011000
          -105 callgsubr
          hintmask 10111000
          263 182 rmoveto
          -71 hlineto
          105 -123 -80 callsubr
        </CharString>
        <CharString name="Uhungarumlaut">
          -44 callgsubr
          59 123 hstem
          2 callgsubr
          272 82 vstem
          -105 callgsubr
          117 59 -102 callgsubr
          42 -123 rmoveto
          39 callsubr
        </CharString>
        <CharString name="Umacron">
          -44 callgsubr
          75 63 hstem
          2 callgsubr
          272 82 vstem
          -105 callgsubr
          153 75 -64 callsubr
        </CharString>
        <CharString name="Uogonek">
          140 -9 callgsubr
          -92 callgsubr
          hstem
          2 callgsubr
          272 82 vstem
          -105 callgsubr
          351 -750 rmoveto
          -99 callsubr
        </CharString>
        <CharString name="Uring">
          -44 callgsubr
          34 49 81 48 hstem
          2 callgsubr
          47 49 81 48 47 82 vstem
          -105 callgsubr
          192 123 rmoveto
          -96 callsubr
        </CharString>
        <CharString name="Utilde">
          140 36 callgsubr
          2 callgsubr
          272 82 hintmask 11101100
          -105 callgsubr
          408 166 -56 callgsubr
          hintmask 11011100
          -101 callgsubr
          hintmask 11101100
          -89 callgsubr
        </CharString>
        <CharString name="V">
          98 21 -21 682 68 hstem
          25 183 214 193 vstem
          25 -50 callgsubr
          56 hlineto
          182 -682 rlineto
          115 hlineto
          183 682 rlineto
          54 68 -193 -68 63 hlineto
          -164 -614 -165 614 rlineto
          52 68 -183 hlineto
          endchar
        </CharString>
        <CharString name="W">
          -6 callsubr
          hstem
          25 165 456 -100 callsubr
          endchar
        </CharString>
        <CharString name="Wacute">
          -6 callsubr
          -16 callsubr
          25 165 456 165 hintmask 10111000
          646 -4 callgsubr
          40 vlineto
          -95 -614 -105 682 rlineto
          hintmask 11011000
          -136 hlineto
          -105 -682 -95 614 rlineto
          40 68 -165 -68 48 hlineto
          107 -682 rlineto
          130 hlineto
          108 681 108 -681 rlineto
          130 hlineto
          107 682 rlineto
          48 68 hlineto
          -482 59 rmoveto
          39 callsubr
        </CharString>
        <CharString name="Wcircumflex">
          -6 callsubr
          11 callsubr
          hstem
          25 165 456 -100 callsubr
          -357 182 -106 callgsubr
        </CharString>
        <CharString name="Wdieresis">
          -6 callsubr
          58 88 hstem
          25 165 111 86 62 86 111 -100 callsubr
          -424 102 rmoveto
          -107 callgsubr
          148 hmoveto
          -107 callgsubr
          endchar
        </CharString>
        <CharString name="Wgrave">
          -6 callsubr
          11 callsubr
          hstem
          25 165 456 -100 callsubr
          -411 182 rmoveto
          -71 hlineto
          105 -123 -80 callsubr
        </CharString>
        <CharString name="X">
          -73 callgsubr
        </CharString>
        <CharString name="Y">
          14 0 68 614 68 -20 callsubr
          -102 callsubr
          endchar
        </CharString>
        <CharString name="Yacute">
          14 -19 callsubr
          -20 callsubr
          -102 callsubr
          -342 59 rmoveto
          39 callsubr
        </CharString>
        <CharString name="Ycircumflex">
          14 -19 callsubr
          -20 callsubr
          -102 callsubr
          -217 182 -106 callgsubr
        </CharString>
        <CharString name="Ydieresis">
          14 0 -92 callgsubr
          58 88 hstemhm
          25 162 -26 86 -11 82 -9 86 -23 159 hintmask 11110101
          -102 callsubr
          hintmask 11101010
          -284 102 rmoveto
          -107 callgsubr
          148 hmoveto
          -107 callgsubr
          endchar
        </CharString>
        <CharString name="Ygrave">
          14 -19 callsubr
          -20 callsubr
          -102 callsubr
          -271 182 rmoveto
          -71 hlineto
          105 -123 -80 callsubr
        </CharString>
        <CharString name="Z">
          -21 0 68 -68 182 388 180 -68 68 hstemhm
          57 71 283 70 hintmask 10101100
          -27 callgsubr
          vlineto
          hintmask 10011100
          -38 callsubr
          vlineto
          hintmask 01101100
          182 -70 vlineto
          hintmask 10101100
          -114 -295 vlineto
          endchar
        </CharString>
        <CharString name="Zacute">
          -21 0 68 502 180 30 callsubr
          57 71 283 70 hintmask 10011100
          -27 callgsubr
          -38 callsubr
          182 vlineto
          hintmask 10101100
          -70 -114 hlineto
          hintmask 11001100
          -295 hlineto
          55 741 rmoveto
          39 callsubr
        </CharString>
        <CharString name="Zcaron">
          -21 0 68 -68 182 388 180 -68 68 -68 -23 callgsubr
          57 71 283 70 hintmask 10100110
          -27 callgsubr
          vlineto
          hintmask 10010110
          -38 callsubr
          vlineto
          hintmask 01100110
          182 -70 vlineto
          hintmask 10001110
          -114 -295 vlineto
          287 864 -103 callsubr
          endchar
        </CharString>
        <CharString name="Zdotaccent">
          -21 0 68 -68 182 388 180 -68 68 80 88 hstemhm
          57 71 89 86 108 70 hintmask 10101111
          -27 callgsubr
          vlineto
          hintmask 10011111
          -38 callsubr
          vlineto
          hintmask 01101111
          182 -70 vlineto
          hintmask 10101111
          -114 -295 vlineto
          187 806 rmoveto
          -107 callgsubr
          endchar
        </CharString>
        <CharString name="a">
          -66 callgsubr
          31 callsubr
          hintmask 11011000
          -95 callsubr
          hlineto
          hintmask 10111000
          -104 callsubr
          endchar
        </CharString>
        <CharString name="aacute">
          -66 callgsubr
          0 182 31 callsubr
          hintmask 10011100
          -95 callsubr
          -5 callsubr
          hlineto
          -31 callgsubr
          -61 -37 -7 -11 -48 vvcurveto
          -37 vlineto
          -65 16 -23 69 vhcurveto
          348 68 hlineto
          hintmask 10101100
          -145 hmoveto
          -208 hlineto
          hintmask 11001100
          80 vlineto
          208 130 rlineto
          -151 281 rmoveto
          39 callsubr
        </CharString>
        <CharString name="abreve">
          -66 callgsubr
          -40 callgsubr
          20 80 -52 64 196 58 -58 82 hintmask 1101001010000000
          -95 callsubr
          hlineto
          hintmask 1011001100000000
          -5 callsubr
          vlineto
          -31 callgsubr
          hintmask 1100110010000000
          -61 -37 -7 -11 -48 vvcurveto
          -37 vlineto
          -65 16 -23 69 vhcurveto
          348 68 hlineto
          -145 hmoveto
          -208 80 hlineto
          208 130 rlineto
          5 419 rmoveto
          hintmask 1101010100000000
          -54 callsubr
          hintmask 1100101100000000
          -103 callgsubr
        </CharString>
        <CharString name="acircumflex">
          -66 callgsubr
          -68 250 31 callsubr
          hintmask 11001100
          -95 callsubr
          hlineto
          hintmask 10101100
          -104 callsubr
          hintmask 10011100
          -65 404 -106 callgsubr
        </CharString>
        <CharString name="acute">
          -360 33 callgsubr
          1 559 rmoveto
          39 callsubr
        </CharString>
        <CharString name="adieresis">
          -66 callgsubr
          58 88 hstemhm
          20 80 -14 86 62 86 -12 82 hintmask 11011001
          -95 callsubr
          hlineto
          hintmask 10111001
          -104 callsubr
          hintmask 11010110
          -136 324 rmoveto
          -107 callgsubr
          148 hmoveto
          -107 callgsubr
          endchar
        </CharString>
        <CharString name="ae">
          168 0 68 -68 126 248 7 callsubr
          -52 callgsubr
          hintmask 01101110
          53 -79 vlineto
          hintmask 10101110
          -58 -185 87 vlineto
          5 callgsubr
          hintmask 10011110
          -22 callsubr
          endchar
        </CharString>
        <CharString name="aeacute">
          168 -62 callsubr
          0 182 -52 callgsubr
          53 vlineto
          hintmask 10101110
          -79 -58 hlineto
          hintmask 11001110
          -185 87 hlineto
          5 callgsubr
          -22 callsubr
          -52 300 rmoveto
          hintmask 10101110
          39 callsubr
        </CharString>
        <CharString name="agrave">
          -66 callgsubr
          -68 250 31 callsubr
          hintmask 11001100
          -95 callsubr
          hlineto
          hintmask 10101100
          -104 callsubr
          hintmask 10011100
          -80 404 rmoveto
          -71 hlineto
          105 -123 -80 callsubr
        </CharString>
        <CharString name="amacron">
          -66 callgsubr
          75 63 31 callsubr
          hintmask 11011100
          -95 callsubr
          hlineto
          hintmask 10111100
          -104 callsubr
          -225 297 -64 callsubr
        </CharString>
        <CharString name="ampersand">
          184 -1 68 -52 -21 694 68 hstemhm
          60 67 35 69 165 67 -45 69 hintmask 10111010
          686 40 rmoveto
          -199 239 120 99 -48 54 -119 -98 -85 102 rlineto
          hintmask 10111100
          108 87 rlineto
          92 vlineto
          111 -9 30 -118 vhcurveto
          -65 hlineto
          -101 -8 -38 -87 hvcurveto
          -81 vlineto
          92 -110 -194 -166 rlineto
          -134 vlineto
          -111 2 -30 118 vhcurveto
          191 hlineto
          hintmask 01111010
          101 15 38 87 hvcurveto
          37 vlineto
          144 -167 rlineto
          -400 577 rmoveto
          55 vlineto
          52 5 10 57 vhcurveto
          43 hlineto
          hintmask 10111100
          59 1 -11 -60 hvcurveto
          -58 vlineto
          -85 -69 rlineto
          49 -423 rmoveto
          -169 hlineto
          -59 -5 11 60 hvcurveto
          100 vlineto
          171 152 rlineto
          hintmask 10111010
          120 -147 rlineto
          -114 vlineto
          -52 -1 -10 -57 vhcurveto
          endchar
        </CharString>
        <CharString name="aogonek">
          -49 -9 callgsubr
          -65 callsubr
          hstem
          1 callgsubr
          vstem
          -95 callsubr
          -5 callsubr
          hlineto
          -31 callgsubr
          -61 -37 -7 -11 -48 vvcurveto
          -37 vlineto
          -65 16 -23 69 vhcurveto
          348 68 hlineto
          -145 hmoveto
          -208 80 hlineto
          208 130 rlineto
          145 -278 rmoveto
          -99 callsubr
        </CharString>
        <CharString name="aring">
          -66 callgsubr
          34 49 81 48 hstemhm
          20 80 17 49 81 48 13 82 hintmask 1101111110000000
          -95 callsubr
          hlineto
          hintmask 1011111110000000
          -104 callsubr
          -191 345 rmoveto
          -96 callsubr
        </CharString>
        <CharString name="asciicircum">
          54 396 -21 375 -20 hstem
          334 -58 callgsubr
          -62 hlineto
          -192 -375 rlineto
          70 hlineto
          151 304 146 -304 rlineto
          69 hlineto
          endchar
        </CharString>
        <CharString name="asciitilde">
          53 243 63 14 65 hstem
          516 371 rmoveto
          -29 -24 -32 -36 -49 -48 -96 79 -85 hhcurveto
          -67 -54 -69 -29 -21 hvcurveto
          45 -34 rlineto
          48 38 19 19 42 56 112 -77 60 hhcurveto
          58 48 47 45 37 hvcurveto
          endchar
        </CharString>
        <CharString name="asterisk">
          -135 440 -21 342 -20 hstem
          174 58 vstem
          367 651 rmoveto
          -29 50 -106 -58 rlineto
          118 -58 -118 vlineto
          -105 60 -27 -51 99 -60 -101 -54 29 -56 105 57 rlineto
          -120 58 119 vlineto
          104 -55 29 50 -103 59 rlineto
          endchar
        </CharString>
        <CharString name="atilde">
          -66 callgsubr
          61 56 -2 57 31 callsubr
          hintmask 11010110
          -95 callsubr
          hlineto
          hintmask 10110110
          -104 callsubr
          29 388 -56 callgsubr
          hintmask 11001110
          -101 callgsubr
          hintmask 11010110
          -89 callgsubr
        </CharString>
        <CharString name="b">
          -15 0 68 442 -20 192 68 -15 callgsubr
          -82 82 212 80 hintmask 11110100
          185 389 rmoveto
          361 -25 callsubr
          hintmask 11101100
          63 -614 11 callgsubr
          -63 -68 351 hlineto
          70 16 40 48 hvcurveto
          336 vlineto
          55 -31 31 -41 -17 -17 -4 -10 -16 vhcurveto
          42 -428 rmoveto
          -212 241 hlineto
          212 133 rlineto
          endchar
        </CharString>
        <CharString name="backslash">
          -123 -129 -21 1020 -20 hstem
          337 -150 rmoveto
          77 hlineto
          -331 1020 rlineto
          -78 hlineto
          endchar
        </CharString>
        <CharString name="bar">
          -272 -130 -21 1022 -20 hstem
          100 70 vstem
          170 -151 rmoveto
          1022 -70 -1022 vlineto
          endchar
        </CharString>
        <CharString name="braceleft">
          -213 -151 41 942 41 hstem
          143 68 vstem
          211 523 rmoveto
          121 vlineto
          106 6 82 102 vhcurveto
          41 vlineto
          -162 -14 -75 -132 hvcurveto
          -143 vlineto
          -60 -24 -53 -69 -29 vhcurveto
          -40 vlineto
          69 -29 24 -53 -60 vvcurveto
          -143 vlineto
          -132 14 -75 162 vhcurveto
          41 vlineto
          -102 -6 82 106 hvcurveto
          121 vlineto
          67 -25 63 -78 32 vhcurveto
          78 32 25 63 67 vvcurveto
          endchar
        </CharString>
        <CharString name="braceright">
          -213 -151 41 942 41 hstem
          118 68 vstem
          118 523 rmoveto
          -67 25 -63 78 -32 vhcurveto
          -78 -32 -25 -63 -67 vvcurveto
          -121 vlineto
          -106 -6 -82 -102 vhcurveto
          -41 vlineto
          162 14 75 132 hvcurveto
          143 vlineto
          60 24 53 69 29 vhcurveto
          40 vlineto
          -69 29 -24 53 60 vvcurveto
          143 vlineto
          132 -14 75 -162 vhcurveto
          -41 vlineto
          102 6 -82 -106 hvcurveto
          endchar
        </CharString>
        <CharString name="bracketleft">
          -283 -149 50 920 49 hstemhm
          80 70 -70 174 hintmask 11010000
          254 -149 rmoveto
          50 vlineto
          hintmask 11100000
          -104 920 hlineto
          hintmask 11010000
          104 49 -102 hlineto
          -48 -24 -18 -48 hvcurveto
          -888 vlineto
          -48 24 -17 48 vhcurveto
          endchar
        </CharString>
        <CharString name="bracketright">
          -283 -149 49 920 50 hstemhm
          5 174 -70 70 hintmask 11100000
          5 870 rmoveto
          -50 vlineto
          hintmask 11010000
          104 -920 hlineto
          hintmask 11100000
          -104 -49 102 hlineto
          48 24 18 48 hvcurveto
          888 vlineto
          48 -24 17 -48 vhcurveto
          endchar
        </CharString>
        <CharString name="breve">
          -207 544 -43 callgsubr
          21 53 201 53 hintmask 01110000
          275 697 rmoveto
          hintmask 10110000
          -54 callsubr
          hintmask 01110000
          -103 callgsubr
        </CharString>
        <CharString name="brokenbar">
          -283 -129 -21 900 -20 hstem
          100 69 vstem
          100 -58 callgsubr
          -361 69 361 vlineto
          -69 -538 rmoveto
          -362 69 362 vlineto
          endchar
        </CharString>
        <CharString name="bullet">
          -128 273 -21 258 -20 hstem
          87 382 rmoveto
          -72 1 57 -58 71 hhcurveto
          70 55 58 72 1 hvcurveto
          71 -56 57 -70 vhcurveto
          -72 -1 -57 -57 -70 vvcurveto
          endchar
        </CharString>
        <CharString name="c">
          -116 -70 callsubr
        </CharString>
        <CharString name="cacute">
          -116 0 68 306 127 -69 69 0 181 -23 callsubr
          188 68 hintmask 10011100
          386 126 rmoveto
          -68 -32 callsubr
          -58 68 127 -241 hlineto
          hintmask 11001100
          -64 -31 -33 -56 hvcurveto
          -324 vlineto
          hintmask 10101100
          -48 16 -40 71 vhcurveto
          249 hlineto
          -262 559 rmoveto
          39 callsubr
        </CharString>
        <CharString name="caron">
          -250 33 callgsubr
          289 682 -103 callsubr
          endchar
        </CharString>
        <CharString name="ccaron">
          -76 callsubr
          -30 682 -103 callsubr
          endchar
        </CharString>
        <CharString name="ccedilla">
          -116 -217 53 67 55 42 -45 callgsubr
          -23 callsubr
          -2 170 -62 62 20 68 hintmask 1110100101000000
          128 -12 callsubr
          hintmask 1110100101000000
          -73 callsubr
          42 199 hlineto
          hintmask 1101101011000000
          126 -68 vlineto
          hintmask 1110011011000000
          -32 callsubr
          vlineto
          hintmask 1110101011000000
          -58 68 127 -241 vlineto
          -64 -31 -33 -56 hvcurveto
          -324 vlineto
          hintmask 1110100101000000
          -46 15 -39 63 -3 vhcurveto
          endchar
        </CharString>
        <CharString name="ccircumflex">
          -76 callsubr
          -137 682 -106 callgsubr
        </CharString>
        <CharString name="cdotaccent">
          -14 callsubr
          79 88 -23 callsubr
          40 86 62 68 hintmask 01101111
          386 126 rmoveto
          -68 hlineto
          hintmask 10011111
          -32 callsubr
          vlineto
          hintmask 10101111
          -81 callgsubr
          hintmask 01101111
          -130 624 rmoveto
          -107 callgsubr
          endchar
        </CharString>
        <CharString name="cedilla">
          -372 -217 53 67 55 44 -20 hstemhm
          0 170 -62 62 hintmask 11110000
          -97 vmoveto
          hintmask 11101000
          108 -67 3 callgsubr
          -73 callsubr
          44 -59 hlineto
          endchar
        </CharString>
        <CharString name="cent">
          -90 -96 -21 117 -45 callgsubr
          85 -20 -23 callsubr
          80 59 66 68 hintmask 1101011110000000
          269 -117 rmoveto
          117 134 vlineto
          hintmask 1011011110000000
          126 -68 vlineto
          hintmask 1100111110000000
          -58 -66 364 66 vlineto
          hintmask 1101011110000000
          -58 68 127 -134 85 -59 -85 -65 vlineto
          -64 -31 -33 -56 hvcurveto
          -324 vlineto
          -48 16 -40 71 vhcurveto
          73 -117 hlineto
          hintmask 1100111110000000
          -80 549 rmoveto
          80 -364 -80 hlineto
          endchar
        </CharString>
        <CharString name="circumflex">
          -250 33 callgsubr
          182 682 -106 callgsubr
        </CharString>
        <CharString name="colon">
          -321 -4 103 255 104 hstem
          60 101 vstem
          161 47 -87 callgsubr
          359 -2 callgsubr
        </CharString>
        <CharString name="comma">
          -311 -129 -21 248 -20 hstem
          171 98 rmoveto
          -74 hlineto
          -77 -248 -80 callsubr
        </CharString>
        <CharString name="copyright">
          344 -11 66 79 64 -64 119 234 120 -65 65 84 68 hstemhm
          55 66 143 76 177 65 176 68 hintmask 1011011111000000
          -78 callgsubr
          -176 -119 rmoveto
          -65 hlineto
          hintmask 1100111111000000
          -55 -177 344 177 vlineto
          hintmask 1101011111000000
          -55 65 120 -228 vlineto
          -60 -30 -31 -53 hvcurveto
          -306 vlineto
          -45 15 -38 67 vhcurveto
          236 hlineto
          endchar
        </CharString>
        <CharString name="currency">
          -58 90 62 -43 -21 369 64 2 -20 hstemhm
          30 68 295 67 hintmask 01101100
          27 125 rmoveto
          37 -37 48 49 rlineto
          hintmask 10101100
          -31 35 49 -16 48 hhcurveto
          52 48 17 31 35 hvcurveto
          hintmask 01011100
          48 -50 37 36 -50 50 rlineto
          31 35 15 50 46 vvcurveto
          50 -15 48 -31 34 vhcurveto
          50 50 -37 36 -48 -49 rlineto
          hintmask 10101100
          28 -37 -47 19 -50 hhcurveto
          -46 -51 -19 -28 -36 hvcurveto
          hintmask 10011100
          -48 49 -37 -37 15 -15 20 -21 14 -13 rlinecurve
          -33 -36 -13 -50 -46 vvcurveto
          -1 -48 15 -46 32 -37 rrcurveto
          22 131 rmoveto
          hintmask 10101100
          84 65 68 82 84 64 -70 -82 -82 -63 -71 -85 -82 -65 69 84 vhcurveto
          endchar
        </CharString>
        <CharString name="d">
          -15 0 69 -58 -21 442 68 182 68 -23 callsubr
          146 34 callsubr
          hintmask 10111100
          37 callsubr
          hintmask 01111010
          66 -182 -55 callgsubr
          hintmask 10111001
          -115 145 69 vlineto
          hintmask 10111100
          hintmask 10111010
          -145 126 rmoveto
          5 callsubr
          endchar
        </CharString>
        <CharString name="dagger">
          7 -176 -21 617 67 263 -20 hstem
          237 76 vstem
          313 420 rmoveto
          19 callsubr
          -617 76 hlineto
          endchar
        </CharString>
        <CharString name="daggerdbl">
          7 -176 -21 257 68 292 67 263 -20 hstem
          237 76 vstem
          509 60 rmoveto
          68 -196 292 19 callsubr
          -292 -197 -68 197 -257 76 257 vlineto
          endchar
        </CharString>
        <CharString name="dcaron">
          69 0 69 -58 -21 442 68 10 -20 192 68 -23 callsubr
          146 34 callsubr
          hintmask 1010111000000000
          37 callsubr
          hintmask 0110110100000000
          66 -182 -55 callgsubr
          hintmask 1010110010000000
          -115 145 69 vlineto
          hintmask 1010111000000000
          hintmask 1010110100000000
          -145 126 rmoveto
          5 callsubr
          262 318 rmoveto
          -74 hlineto
          hintmask 1001111000000000
          -41 callsubr
          endchar
        </CharString>
        <CharString name="dcroat">
          -15 0 69 -58 -21 442 68 69 63 50 68 -23 callsubr
          130 227 -211 34 callsubr
          hintmask 1011111000000000
          260 632 rmoveto
          -63 vlineto
          hintmask 0111110010000000
          82 -69 -55 callgsubr
          hintmask 1011110001000000
          -115 145 69 vlineto
          hintmask 1011110100000000
          -63 500 hlineto
          hintmask 1011111000000000
          63 63 hlineto
          hintmask 1011110100000000
          -63 118 -148 -68 hlineto
          hintmask 1011110010000000
          66 -50 hlineto
          hintmask 1011111000000000
          hintmask 1011110010000000
          -437 vmoveto
          5 callsubr
          endchar
        </CharString>
        <CharString name="degree">
          -166 494 54 201 52 hstem
          37 53 201 53 vstem
          37 648 rmoveto
          -84 68 -70 86 84 69 68 85 85 -69 69 -83 -87 -68 -68 -85 vhcurveto
          53 1 rmoveto
          55 45 45 57 53 46 -45 -56 -54 -45 -46 -55 -56 -45 47 54 vhcurveto
          endchar
        </CharString>
        <CharString name="dieresis">
          -307 558 88 hstem
          1 86 62 86 vstem
          87 602 rmoveto
          -107 callgsubr
          148 hmoveto
          -107 callgsubr
          endchar
        </CharString>
        <CharString name="divide">
          -180 205 103 46 66 50 104 hstem
          128 101 vstem
          15 354 rmoveto
          329 66 -329 hlineto
          214 -164 -87 callgsubr
          266 -2 callgsubr
        </CharString>
        <CharString name="dollar">
          40 -129 -21 150 -67 callgsubr
          380 -65 callgsubr
          150 -20 hstemhm
          80 80 96 70 96 80 cntrmask 0000001110000000
          hintmask 1100111110000000
          326 -150 rmoveto
          150 73 vlineto
          20 callsubr
          -82 51 rlineto
          264 95 vlineto
          hintmask 1101011110000000
          -117 72 185 -167 150 -70 -150 -65 vlineto
          -74 -37 -17 -83 hvcurveto
          -126 vlineto
          -49 33 -25 47 -26 vhcurveto
          96 -59 rlineto
          -297 -104 vlineto
          hintmask 1011011110000000
          117 -72 -185 176 -150 vlineto
          166 413 rmoveto
          hintmask 1100111110000000
          -195 -96 254 vlineto
          -166 200 rmoveto
          160 96 -220 vlineto
          endchar
        </CharString>
        <CharString name="dotaccent">
          -457 580 88 hstem
          0 86 vstem
          86 624 rmoveto
          -107 callgsubr
          endchar
        </CharString>
        <CharString name="dotlessi">
          -242 0 68 364 -33 callgsubr
          hintmask 11100000
          195 -63 callgsubr
          hintmask 11001000
          63 -364 3 callsubr
        </CharString>
        <CharString name="e">
          -71 callgsubr
          -29 callsubr
          hintmask 10111000
          -106 callsubr
          hintmask 01111000
          53 -79 vlineto
          hintmask 10111000
          -97 callgsubr
          endchar
        </CharString>
        <CharString name="eacute">
          -77 0 68 364 69 0 181 -29 callsubr
          hintmask 10111000
          130 139 rmoveto
          285 180 rlineto
          93 vlineto
          67 -28 22 -65 vhcurveto
          -169 hlineto
          -72 -31 -34 -65 hvcurveto
          hintmask 11011000
          -329 vlineto
          -40 23 -33 57 vhcurveto
          205 hlineto
          57 23 33 40 hvcurveto
          53 -79 -97 callgsubr
          13 339 rmoveto
          39 callsubr
        </CharString>
        <CharString name="ebreve">
          -71 callgsubr
          43 -43 callgsubr
          50 80 -51 51 205 51 -51 80 hintmask 1011010010000000
          -106 callsubr
          hintmask 0111010010000000
          53 -79 vlineto
          hintmask 1010110100000000
          -97 callgsubr
          203 477 rmoveto
          hintmask 1011010100000000
          -54 callsubr
          hintmask 1010101100000000
          -103 callgsubr
        </CharString>
        <CharString name="ecaron">
          -98 callgsubr
          245 462 -103 callsubr
          endchar
        </CharString>
        <CharString name="ecircumflex">
          -98 callgsubr
          138 462 -106 callgsubr
        </CharString>
        <CharString name="edieresis">
          -71 callgsubr
          57 88 -23 callsubr
          -15 86 62 86 -14 80 hintmask 10111001
          -106 callsubr
          hintmask 01111001
          53 -79 vlineto
          hintmask 10111001
          -97 callgsubr
          hintmask 10110110
          71 382 rmoveto
          -107 callgsubr
          148 hmoveto
          -107 callgsubr
          endchar
        </CharString>
        <CharString name="edotaccent">
          -71 callgsubr
          79 88 -23 callsubr
          59 86 60 80 hintmask 10111110
          -106 callsubr
          hintmask 01111110
          53 -79 vlineto
          hintmask 10111110
          -97 callgsubr
          145 404 rmoveto
          -107 callgsubr
          endchar
        </CharString>
        <CharString name="egrave">
          -98 callgsubr
          84 462 rmoveto
          -71 hlineto
          105 -123 -80 callsubr
        </CharString>
        <CharString name="eight">
          -17 0 68 300 75 244 63 hstemhm
          50 82 -62 77 231 77 -62 82 hintmask 11101100
          455 502 rmoveto
          26 callgsubr
          -157 hlineto
          -86 -29 -53 -66 hvcurveto
          -129 vlineto
          hintmask 11110010
          -50 33 -41 29 -2 vhcurveto
          -30 -2 -52 -36 -70 vvcurveto
          -167 -13 callsubr
          hintmask 11110100
          31 2 29 39 52 vvcurveto
          hintmask 11110010
          -62 -434 rmoveto
          -261 300 261 hlineto
          hintmask 11101100
          -246 319 rmoveto
          231 -244 -231 hlineto
          endchar
        </CharString>
        <CharString name="ellipsis">
          67 -4 103 hstem
          40 101 113 101 113 101 cntrmask 01110000
          141 47 -87 callgsubr
          214 hmoveto
          -94 callgsubr
          214 hmoveto
          -94 callgsubr
          endchar
        </CharString>
        <CharString name="emacron">
          -71 callgsubr
          74 63 -29 callsubr
          hintmask 10111100
          -106 callsubr
          hintmask 01111100
          53 -79 vlineto
          hintmask 10111100
          -97 callgsubr
          -25 355 -64 callsubr
        </CharString>
        <CharString name="emdash">
          190 12 callsubr
          581 66 vlineto
          endchar
        </CharString>
        <CharString name="endash">
          62 12 callsubr
          444 66 vlineto
          endchar
        </CharString>
        <CharString name="eng">
          26 -219 69 150 68 365 67 10 -20 -25 callgsubr
          -81 81 49 231 -81 81 hintmask 11101001
          383 440 rmoveto
          -590 vlineto
          hintmask 11101010
          -150 -69 139 hlineto
          -40 callsubr
          566 vlineto
          hintmask 11011010
          1 callsubr
          hintmask 11101010
          -60 callsubr
          hintmask 11100110
          8 callgsubr
          hintmask 11101010
          -63 -68 193 68 -49 247 hlineto
          endchar
        </CharString>
        <CharString name="eogonek">
          -77 -9 callgsubr
          68 -68 126 306 69 -29 callsubr
          hintmask 10111100
          -106 callsubr
          53 -79 vlineto
          hintmask 11011100
          -97 callgsubr
          198 -220 rmoveto
          -99 callsubr
        </CharString>
        <CharString name="equal">
          22 274 64 89 65 hstem
          484 427 rmoveto
          65 -404 -65 vlineto
          404 -153 rmoveto
          64 -404 -64 vlineto
          endchar
        </CharString>
        <CharString name="eth">
          -82 1 66 659 -20 hstem
          50 74 219 73 vstem
          116 495 rmoveto
          88 71 98 -38 rlineto
          38 -12 3 -23 -21 vvcurveto
          -25 vlineto
          -202 -129 rlineto
          -64 -36 -27 -32 -53 vvcurveto
          -109 vlineto
          -52 13 -35 78 vhcurveto
          184 hlineto
          73 18 35 52 hvcurveto
          391 vlineto
          48 -16 39 -70 26 vhcurveto
          -65 24 135 110 rlineto
          -87 hlineto
          -107 -88 -169 64 rlineto
          -68 vlineto
          110 -45 -114 -94 rlineto
          91 -428 rmoveto
          162 vlineto
          219 137 rlineto
          -299 vlineto
          endchar
        </CharString>
        <CharString name="exclam">
          -241 -4 103 628 -20 hstem
          109 82 vstem
          191 193 rmoveto
          534 -82 -534 vlineto
          92 -146 -87 callgsubr
          endchar
        </CharString>
        <CharString name="exclamdown">
          -241 17 -21 628 103 hstem
          109 82 vstem
          109 530 rmoveto
          -534 82 534 vlineto
          10 146 rmoveto
          29 -22 22 -29 -26 -24 -22 -29 -27 24 -25 27 28 22 25 27 vhcurveto
          endchar
        </CharString>
        <CharString name="f">
          -210 34 callgsubr
          68 hstemhm
          40 239 -159 78 -78 172 hintmask 11110000
          279 428 rmoveto
          72 vlineto
          hintmask 11101000
          -81 182 hlineto
          hintmask 11100100
          94 68 -83 0 callgsubr
          vlineto
          hintmask 11110000
          -80 -72 hlineto
          hintmask 11101000
          80 -360 3 callgsubr
          -80 -68 239 68 hlineto
          hintmask 11101000
          -81 360 hlineto
          endchar
        </CharString>
        <CharString name="five">
          -24 0 68 -68 190 199 68 225 68 hstemhm
          61 78 248 81 hintmask 10111100
          374 457 rmoveto
          -235 225 299 68 -377 -361 326 -321 -259 hlineto
          hintmask 01111100
          122 -78 -70 vlineto
          -70 17 -50 96 vhcurveto
          186 hlineto
          104 15 57 64 hvcurveto
          239 vlineto
          61 -13 36 -81 vhcurveto
          endchar
        </CharString>
        <CharString name="florin">
          -188 -200 69 559 72 182 68 hstemhm
          25 183 -78 199 hintmask 11110000
          208 428 rmoveto
          hintmask 11101000
          121 72 3 callgsubr
          -121 182 hlineto
          hintmask 11101000
          121 68 -110 0 callgsubr
          vlineto
          hintmask 11110000
          -105 -72 hlineto
          105 -559 -104 -69 94 hlineto
          67 22 30 56 hvcurveto
          endchar
        </CharString>
        <CharString name="four">
          -23 0 68 125 68 489 -20 hstem
          327 80 vstem
          217 hmoveto
          262 68 -72 125 72 68 -72 489 -81 hlineto
          -316 -557 rlineto
          317 -125 -110 hlineto
          110 193 rmoveto
          -194 hlineto
          194 340 rlineto
          endchar
        </CharString>
        <CharString name="franc">
          42 0 68 220 66 67 66 78 -65 callgsubr
          hstemhm
          64 211 -69 callgsubr
          256 68 hintmask 11110101
          64 487 rmoveto
          -66 vlineto
          hintmask 11110011
          64 -67 -66 -66 66 -220 -36 callgsubr
          hintmask 11110101
          -59 callsubr
          hintmask 11101011
          -65 220 143 66 -143 67 145 66 -145 195 256 hlineto
          hintmask 11110101
          -77 callgsubr
          -469 vlineto
          hintmask 11101011
          -68 63 -195 vlineto
          endchar
        </CharString>
        <CharString name="g">
          -19 -72 callsubr
          27 callsubr
          hintmask 10111010
          -88 callsubr
          vlineto
          hintmask 10110110
          -184 hlineto
          hintmask 01110110
          -57 callgsubr
          hintmask 10111010
          -21 callgsubr
          endchar
        </CharString>
        <CharString name="gbreve">
          -19 -72 callsubr
          -40 callgsubr
          50 78 -42 75 -53 53 177 82 -58 58 hintmask 1011101001000000
          -88 callsubr
          -184 vlineto
          hintmask 0111100101000000
          -57 callgsubr
          hintmask 1011011001000000
          -21 callgsubr
          hintmask 1011011000100000
          24 265 rmoveto
          hintmask 1011101001000000
          -54 callsubr
          hintmask 1011010010100000
          -103 callgsubr
        </CharString>
        <CharString name="gcircumflex">
          -19 -72 callsubr
          -68 250 27 callsubr
          hintmask 10110101
          -88 callsubr
          vlineto
          hintmask 10110011
          -184 hlineto
          hintmask 01110011
          -57 callgsubr
          hintmask 10110101
          -21 callgsubr
          hintmask 10101101
          -41 250 -106 callgsubr
        </CharString>
        <CharString name="gdotaccent">
          -19 -72 callsubr
          80 88 hstemhm
          50 78 -42 68 64 86 34 82 hintmask 1011110110000000
          -88 callsubr
          vlineto
          hintmask 1011101110000000
          -184 hlineto
          hintmask 0111101110000000
          -57 callgsubr
          hintmask 1011110110000000
          -21 callgsubr
          -34 192 rmoveto
          -107 callgsubr
          endchar
        </CharString>
        <CharString name="germandbls">
          7 0 68 300 75 239 68 hstemhm
          50 158 -78 78 68 193 -77 77 -62 82 hintmask 11101010
          208 -50 callgsubr
          184 -239 11 callgsubr
          -116 -75 hlineto
          hintmask 11110001
          131 -300 11 callgsubr
          -131 -68 72 hlineto
          hintmask 11110001
          99 42 47 87 hvcurveto
          170 vlineto
          65 -46 36 -32 4 vhcurveto
          hintmask 11101100
          30 3 28 39 51 vvcurveto
          26 callgsubr
          -137 hlineto
          -60 -29 -29 -75 hvcurveto
          -578 vlineto
          -80 -68 158 hlineto
          endchar
        </CharString>
        <CharString name="grave">
          -360 33 callgsubr
          72 -50 callgsubr
          -71 hlineto
          105 -123 -80 callsubr
        </CharString>
        <CharString name="greater">
          -1 144 -21 511 -20 hstem
          481 341 rmoveto
          76 vlineto
          -152 73 -147 72 -152 72 rrcurveto
          -69 vlineto
          124 -60 131 -66 123 -60 -378 -187 rcurveline
          -69 vlineto
          endchar
        </CharString>
        <CharString name="greaterequal">
          -1 73 66 572 -20 hstem
          511 418 rmoveto
          76 vlineto
          -451 217 rlineto
          -69 vlineto
          378 -186 -378 -187 rlineto
          -69 vlineto
          451 -61 rmoveto
          -450 -66 450 hlineto
          endchar
        </CharString>
        <CharString name="guillemotleft">
          -99 94 -21 409 -20 hstem
          114 270 -36 callsubr
          65 156 -36 callsubr
          endchar
        </CharString>
        <CharString name="guillemotright">
          -99 94 -21 409 -20 hstem
          329 285 -35 callgsubr
          -65 -156 -35 callgsubr
          endchar
        </CharString>
        <CharString name="guilsinglleft">
          -291 94 -21 409 -20 hstem
          114 270 -36 callsubr
          endchar
        </CharString>
        <CharString name="guilsinglright">
          -291 94 -21 409 -20 hstem
          137 285 -35 callgsubr
          endchar
        </CharString>
        <CharString name="h">
          -86 callsubr
          endchar
        </CharString>
        <CharString name="hbar">
          17 callgsubr
          442 -20 51 63 78 68 -93 callgsubr
          hintmask 1111001100000000
          42 541 rmoveto
          61 -473 hlineto
          hintmask 1111100100000000
          -36 callgsubr
          hintmask 1111010100000000
          -48 callsubr
          hintmask 1111100010000000
          -49 245 hlineto
          199 125 rlineto
          -370 vlineto
          hintmask 1111100100000000
          -48 -68 -48 callsubr
          hintmask 1111100010000000
          -64 363 hlineto
          51 -34 28 -38 -14 -15 -4 -8 -13 vhcurveto
          -166 -104 rlineto
          147 113 63 -113 146 -144 -68 vlineto
          hintmask 1111001100000000
          63 -78 -61 hlineto
          endchar
        </CharString>
        <CharString name="hcircumflex">
          -86 callsubr
          hintmask 11110001
          -142 682 -106 callgsubr
        </CharString>
        <CharString name="hungarumlaut">
          -212 559 123 hstem
          1 559 -102 callgsubr
          42 -123 rmoveto
          39 callsubr
        </CharString>
        <CharString name="hyphen">
          -91 12 callsubr
          291 66 vlineto
          endchar
        </CharString>
        <CharString name="i">
          -242 -77 callsubr
          81 103 -80 callgsubr
          9 565 rmoveto
          27 -22 24 -29 -8 callsubr
          vhcurveto
          endchar
        </CharString>
        <CharString name="iacute">
          -242 -77 callsubr
          -16 callsubr
          50 -91 callsubr
          hintmask 10110000
          32 callgsubr
          hlineto
          hintmask 11001000
          -95 callgsubr
          hintmask 11000100
          -65 hlineto
          -134 491 rmoveto
          73 hlineto
          hintmask 11010000
          -47 callgsubr
        </CharString>
        <CharString name="ibreve">
          -242 -77 callsubr
          -40 callgsubr
          -3 53 0 -91 callsubr
          56 53 hintmask 1110100110000000
          32 callgsubr
          -36 callgsubr
          hintmask 1110001000000000
          -59 callsubr
          hintmask 1101010010000000
          -65 hlineto
          56 629 rmoveto
          hintmask 1110100110000000
          -54 callsubr
          hintmask 1101100110000000
          -103 callgsubr
        </CharString>
        <CharString name="icircumflex">
          -234 -77 callsubr
          11 callsubr
          hstemhm
          58 -91 callsubr
          hintmask 11110000
          203 35 callsubr
          -364 3 callgsubr
          -36 callgsubr
          hintmask 11101000
          210 68 3 callgsubr
          -65 hlineto
          -25 614 -106 callgsubr
        </CharString>
        <CharString name="idieresis">
          -242 -77 callsubr
          58 88 hstemhm
          33 86 -69 145 -82 82 -14 79 -2 callsubr
          hintmask 11100100
          63 -364 hlineto
          hintmask 11101000
          -36 callgsubr
          hintmask 11110010
          22 callsubr
          hintmask 11110010
          -76 534 rmoveto
          -107 callgsubr
          148 hmoveto
          -107 callgsubr
          endchar
        </CharString>
        <CharString name="igrave">
          -242 -77 callsubr
          11 callsubr
          -80 callgsubr
          -63 614 rmoveto
          -71 hlineto
          105 -123 -80 callsubr
        </CharString>
        <CharString name="imacron">
          -242 -77 callsubr
          75 63 -80 callgsubr
          -173 507 -64 callsubr
        </CharString>
        <CharString name="iogonek">
          -242 -9 callgsubr
          -65 callsubr
          0 81 0 103 hstemhm
          50 -91 callsubr
          hintmask 11101100
          195 -63 callgsubr
          hintmask 11101001
          63 -364 hlineto
          hintmask 11010100
          -36 callgsubr
          hintmask 11010010
          -59 callsubr
          hintmask 11010100
          -65 hlineto
          9 565 rmoveto
          hintmask 11101100
          27 -22 24 -29 -8 callsubr
          vhcurveto
          31 -633 rmoveto
          -99 callsubr
        </CharString>
        <CharString name="itilde">
          -242 -77 callsubr
          61 16 callgsubr
          50 -91 callsubr
          -2 callsubr
          hintmask 11100010
          2 callsubr
          82 598 -56 callgsubr
          hintmask 11011000
          -101 callgsubr
          hintmask 11101000
          -89 callgsubr
        </CharString>
        <CharString name="j">
          -278 -200 69 563 68 81 103 hstemhm
          59 145 -101 101 -82 82 hintmask 11110000
          204 35 callsubr
          -563 3 callgsubr
          -132 -69 122 hlineto
          -40 callsubr
          747 vmoveto
          27 -22 24 -29 vhcurveto
          hintmask 11101000
          -8 callsubr
          hvcurveto
          endchar
        </CharString>
        <CharString name="k">
          -35 0 68 432 -20 202 -7 callgsubr
          hintmask 11110000
          435 68 rmoveto
          -55 callsubr
          474 -140 -68 vlineto
          hintmask 11100100
          64 -614 3 callgsubr
          -64 -68 hlineto
          hintmask 11101000
          -34 callsubr
          86 68 hlineto
          endchar
        </CharString>
        <CharString name="kgreenlandic">
          -35 0 68 364 -7 callgsubr
          hintmask 11100000
          435 68 rmoveto
          -55 callsubr
          224 -140 -68 vlineto
          hintmask 11001000
          64 -364 hlineto
          hintmask 11100000
          -64 -68 hlineto
          hintmask 11010000
          -34 callsubr
          86 68 hlineto
          endchar
        </CharString>
        <CharString name="l">
          -232 0 68 614 -33 callgsubr
          hintmask 11100000
          -30 callsubr
          hintmask 11001000
          63 -614 3 callsubr
        </CharString>
        <CharString name="lacute">
          -265 0 -92 callgsubr
          0 167 hstemhm
          50 -91 callsubr
          hintmask 10110000
          195 -58 callgsubr
          -43 callsubr
          -85 callgsubr
          hintmask 11001000
          -95 callgsubr
          hintmask 11000100
          -65 hlineto
          -148 726 rmoveto
          73 hlineto
          hintmask 11010000
          -47 callgsubr
        </CharString>
        <CharString name="lcaron">
          -178 0 68 442 -20 192 68 -26 callsubr
          -58 callgsubr
          -43 callsubr
          hlineto
          hintmask 11100100
          63 -614 3 callgsubr
          -36 callgsubr
          hintmask 11101000
          210 68 3 callgsubr
          -65 hlineto
          168 682 -24 callgsubr
        </CharString>
        <CharString name="ldot">
          -207 0 68 145 103 366 -33 callgsubr
          31 101 hintmask 11110010
          -30 callsubr
          hintmask 11100110
          -85 callgsubr
          hintmask 11110010
          -36 callgsubr
          hintmask 11101000
          -59 callsubr
          hintmask 11110010
          -65 hlineto
          132 196 -87 callgsubr
          endchar
        </CharString>
        <CharString name="less">
          -1 144 -21 511 -20 hstem
          511 123 -3 callgsubr
          endchar
        </CharString>
        <CharString name="lessequal">
          -1 73 66 572 -20 hstem
          511 200 -3 callgsubr
          -345 vmoveto
          450 66 -450 hlineto
          endchar
        </CharString>
        <CharString name="lira">
          -11 -61 callsubr
          66 66 111 24 callsubr
          hintmask 10111101
          34 317 rmoveto
          -66 86 -183 -87 -68 446 vlineto
          hintmask 01111101
          -74 callgsubr
          vlineto
          hintmask 10111101
          -117 -213 183 124 66 -124 111 120 72 -120 182 vlineto
          hintmask 10111011
          133 68 -122 0 callgsubr
          -87 -72 87 -111 vlineto
          endchar
        </CharString>
        <CharString name="logicalnot">
          107 104 -21 271 67 hstem
          493 73 vstem
          493 83 rmoveto
          73 338 -523 -67 450 hlineto
          endchar
        </CharString>
        <CharString name="lslash">
          -232 0 -92 callgsubr
          hstemhm
          11 184 -145 -91 callsubr
          -82 183 hintmask 11010000
          -30 callsubr
          hintmask 11000100
          63 -323 hlineto
          hintmask 11100000
          -102 -44 rlineto
          -86 vlineto
          hintmask 11000100
          102 44 rlineto
          -205 vlineto
          hintmask 11010000
          -36 callgsubr
          hintmask 11001000
          -59 callsubr
          hintmask 11100000
          -65 240 hlineto
          hintmask 11000010
          101 44 rlineto
          86 vlineto
          hintmask 11010000
          -101 -44 rlineto
          endchar
        </CharString>
        <CharString name="m">
          275 0 68 365 77 -10 -20 -25 callgsubr
          -144 193 -130 81 135 179 -130 81 135 193 -145 81 hintmask 1101000101000000
          449 68 rmoveto
          258 vlineto
          183 114 rlineto
          -372 vlineto
          hintmask 1101001010000000
          -48 -68 -48 callsubr
          hintmask 1101001001000000
          -64 365 hlineto
          1 callsubr
          hintmask 1011000110000000
          -13 -12 -3 -7 -11 hvcurveto
          -150 -94 rlineto
          hintmask 1101000110000000
          27 vlineto
          1 callsubr
          hintmask 1011001010000000
          -13 -12 -3 -7 -11 hvcurveto
          -151 -95 rlineto
          95 -144 vlineto
          hintmask 1101001010000000
          -67 vlineto
          hintmask 1100011010000000
          8 callgsubr
          hintmask 1101001010000000
          -36 callgsubr
          hintmask 1100101010000000
          -48 callsubr
          hintmask 1101000110000000
          -49 258 hlineto
          184 115 rlineto
          -369 vlineto
          -1 -4 rlineto
          hintmask 1101001010000000
          -48 -68 179 68 hlineto
          endchar
        </CharString>
        <CharString name="macron">
          -287 575 63 hstem
          575 vmoveto
          255 63 -255 hlineto
          endchar
        </CharString>
        <CharString name="multiply">
          -169 228 -21 363 -20 hstem
          234 386 rmoveto
          134 134 -50 50 -133 -134 -133 132 -46 -47 132 -132 -133 -133 49 -49 133 133 133 -132 46 46 rlineto
          endchar
        </CharString>
        <CharString name="n">
          29 callsubr
          10 -20 -93 callgsubr
          hintmask 11010001
          10 callgsubr
          hintmask 10110010
          1 callsubr
          hintmask 11010010
          -60 callsubr
          hintmask 11000110
          8 callgsubr
          hintmask 11010010
          -36 callgsubr
          hintmask 11001010
          -48 callsubr
          hintmask 11010001
          -33 callsubr
          hintmask 11010010
          -48 -68 -48 callsubr
          endchar
        </CharString>
        <CharString name="nacute">
          29 callsubr
          0 182 -172 -82 callgsubr
          -333 491 rmoveto
          hintmask 1001100100000000
          73 hlineto
          hintmask 1100100010000000
          -47 callgsubr
        </CharString>
        <CharString name="napostrophe">
          29 callsubr
          0 179 -169 -82 callgsubr
          -488 488 rmoveto
          hintmask 1001100100000000
          73 hlineto
          hintmask 1100100010000000
          -47 callgsubr
        </CharString>
        <CharString name="ncaron">
          29 callsubr
          10 -20 192 -20 -93 callgsubr
          hintmask 1101100010000000
          10 callgsubr
          hintmask 1011100100000000
          1 callsubr
          hintmask 1101100100000000
          -60 callsubr
          hintmask 1101001100000000
          8 callgsubr
          hintmask 1101100100000000
          -36 callgsubr
          hintmask 1101010100000000
          -48 callsubr
          hintmask 1101100010000000
          -33 callsubr
          hintmask 1101100100000000
          -48 -68 -48 callsubr
          hintmask 1101100010000000
          -101 614 -103 callsubr
          endchar
        </CharString>
        <CharString name="nine">
          -17 0 65 -65 139 201 69 273 68 hstemhm
          50 82 261 82 hintmask 01111100
          132 139 rmoveto
          -82 -22 hlineto
          -64 34 -53 81 vhcurveto
          190 hlineto
          86 34 53 66 hvcurveto
          507 vlineto
          87 -34 37 -103 vhcurveto
          -147 hlineto
          -99 -42 -40 -87 hvcurveto
          -170 vlineto
          -67 27 -46 98 vhcurveto
          218 hlineto
          hintmask 10111100
          -275 -261 vlineto
          hintmask 01111100
          617 vmoveto
          261 -273 -261 hlineto
          endchar
        </CharString>
        <CharString name="ntilde">
          29 callsubr
          10 -20 71 56 -2 57 -93 callgsubr
          hintmask 1101010001000000
          10 callgsubr
          hintmask 1011010010000000
          1 callsubr
          hintmask 1101010010000000
          -60 callsubr
          hintmask 1101000110000000
          8 callgsubr
          hintmask 1101010010000000
          -36 callgsubr
          hintmask 1101001010000000
          -48 callsubr
          hintmask 1101010001000000
          -33 callsubr
          hintmask 1101010010000000
          -48 -68 -48 callsubr
          hintmask 1101010001000000
          -117 598 -56 callgsubr
          hintmask 1100110010000000
          -101 callgsubr
          hintmask 1101010010000000
          -89 callgsubr
        </CharString>
        <CharString name="numbersign">
          225 21 -21 248 73 102 77 250 -20 hstem
          727 423 rmoveto
          20 77 rlineto
          -202 hlineto
          63 250 rlineto
          -80 hlineto
          -64 -250 rlineto
          -131 hlineto
          64 250 rlineto
          -78 hlineto
          -64 -250 rlineto
          -168 hlineto
          -20 -77 rlineto
          168 hlineto
          -26 -102 rlineto
          -169 hlineto
          -20 -73 rlineto
          171 hlineto
          -67 -248 rlineto
          79 hlineto
          65 248 rlineto
          130 hlineto
          -64 -248 rlineto
          81 hlineto
          63 248 rlineto
          203 hlineto
          18 73 rlineto
          -201 hlineto
          27 102 rlineto
          -81 hmoveto
          -27 -102 rlineto
          -131 hlineto
          29 102 rlineto
          endchar
        </CharString>
        <CharString name="o">
          -91 -77 callsubr
          hstem
          -17 callsubr
          vstem
          318 -105 callsubr
          endchar
        </CharString>
        <CharString name="oacute">
          -91 -77 callsubr
          0 182 31 callgsubr
          hintmask 10111000
          318 hmoveto
          68 25 34 55 hvcurveto
          322 vlineto
          53 -20 36 -73 vhcurveto
          -185 hlineto
          -75 -18 -36 -53 hvcurveto
          hintmask 11011000
          -322 vlineto
          -55 25 -34 68 vhcurveto
          -12 -24 callsubr
          209 -364 -209 hlineto
          15 491 rmoveto
          39 callsubr
        </CharString>
        <CharString name="obreve">
          -91 -77 callsubr
          -40 callgsubr
          40 81 -49 49 209 49 -49 81 hintmask 11011001
          318 -105 callsubr
          205 629 rmoveto
          hintmask 11101010
          -54 callsubr
          hintmask 11010110
          -103 callgsubr
        </CharString>
        <CharString name="ocircumflex">
          -91 -77 callsubr
          -68 250 31 callgsubr
          hintmask 11011000
          318 -105 callsubr
          hintmask 10111000
          140 614 -106 callgsubr
        </CharString>
        <CharString name="odieresis">
          -91 -77 callsubr
          58 88 hstemhm
          40 81 -13 86 62 86 -12 81 hintmask 11110010
          318 -105 callsubr
          hintmask 11101100
          73 534 rmoveto
          -107 callgsubr
          148 hmoveto
          -107 callgsubr
          endchar
        </CharString>
        <CharString name="oe">
          202 0 68 -68 126 306 68 hstemhm
          60 81 189 80 194 80 hintmask 01111100
          604 hmoveto
          57 23 33 40 hvcurveto
          53 -79 vlineto
          -58 -195 71 vlineto
          274 180 rlineto
          93 vlineto
          67 -28 21 -65 vhcurveto
          -438 hlineto
          -75 -18 -36 -53 hvcurveto
          -322 vlineto
          -55 25 -34 68 vhcurveto
          -12 -24 callsubr
          189 hlineto
          hintmask 10111100
          -364 -189 vlineto
          269 364 rmoveto
          194 -83 hlineto
          -193 -129 rlineto
          endchar
        </CharString>
        <CharString name="ogonek">
          -372 -217 53 -53 217 hstemhm
          0 62 hintmask 10100000
          hintmask 01100000
          98 hmoveto
          -44 -34 rlineto
          -40 -30 -14 -11 -43 vvcurveto
          -31 vlineto
          -37 12 -31 56 vhcurveto
          82 53 -88 75 hlineto
          108 89 rlineto
          endchar
        </CharString>
        <CharString name="ograve">
          -91 -77 callsubr
          -68 250 31 callgsubr
          hintmask 11011000
          318 -105 callsubr
          hintmask 10111000
          86 614 rmoveto
          -71 hlineto
          105 -123 -80 callsubr
        </CharString>
        <CharString name="ohungarumlaut">
          -91 -77 callsubr
          59 123 hstem
          -17 callsubr
          vstem
          318 -105 callsubr
          -59 491 -102 callgsubr
          42 -123 rmoveto
          39 callsubr
        </CharString>
        <CharString name="omacron">
          -91 -77 callsubr
          75 63 hstem
          -17 callsubr
          vstem
          318 -105 callsubr
          -23 507 -64 callsubr
        </CharString>
        <CharString name="one">
          -192 0 68 613 69 hstemhm
          30 178 -82 82 hintmask 11100000
          58 hmoveto
          212 68 -62 596 hlineto
          56 -25 30 -67 vhcurveto
          -86 -69 hlineto
          hintmask 11010000
          96 -613 -68 hlineto
          endchar
        </CharString>
        <CharString name="onesuperior">
          -372 420 46 284 -20 hstem
          62 53 vstem
          16 420 rmoveto
          142 46 -43 243 hlineto
          26 -13 15 -32 vhcurveto
          -66 -47 58 -237 -46 hlineto
          endchar
        </CharString>
        <CharString name="ordfeminine">
          -204 420 56 218 56 hstemhm
          22 67 -53 53 119 65 hintmask 11011000
          273 476 rmoveto
          213 vlineto
          40 -18 21 -47 vhcurveto
          -172 -103 53 47 119 -35 hlineto
          -139 -86 rlineto
          hintmask 11101000
          -35 -22 -12 -13 -32 vvcurveto
          -23 vlineto
          -46 12 -17 49 vhcurveto
          245 56 hlineto
          -120 hmoveto
          -122 43 hlineto
          122 75 rlineto
          endchar
        </CharString>
        <CharString name="ordmasculine">
          -234 420 45 240 45 hstem
          23 50 165 50 vstem
          173 -58 callgsubr
          -46 hlineto
          -85 -19 -24 -88 hvcurveto
          -103 vlineto
          -97 16 -18 94 vhcurveto
          50 hlineto
          103 2 27 96 hvcurveto
          79 vlineto
          102 -7 26 -108 vhcurveto
          65 -285 rmoveto
          -165 240 165 hlineto
          endchar
        </CharString>
        <CharString name="oslash">
          -91 -85 153 -68 -65 callsubr
          -68 131 31 callgsubr
          hintmask 10101100
          94 -85 19 callgsubr
          hintmask 01011100
          25 85 rlineto
          128 hlineto
          68 25 34 55 hvcurveto
          322 vlineto
          47 -16 34 -55 7 vhcurveto
          19 64 rlineto
          -71 hlineto
          hintmask 01101100
          -19 -63 rlineto
          -136 hlineto
          -75 -18 -36 -53 hvcurveto
          -322 vlineto
          -51 21 -33 58 -5 vhcurveto
          hintmask 10101100
          -28 callsubr
          endchar
        </CharString>
        <CharString name="oslashacute">
          -91 -85 153 -68 -65 callsubr
          58 123 31 callgsubr
          hintmask 10111100
          94 -85 19 callgsubr
          25 85 rlineto
          128 hlineto
          68 25 34 55 hvcurveto
          322 vlineto
          47 -16 34 -55 7 vhcurveto
          19 64 rlineto
          -71 hlineto
          -19 -63 rlineto
          -136 hlineto
          -75 -18 -36 -53 hvcurveto
          hintmask 01111100
          -322 vlineto
          -51 21 -33 58 -5 vhcurveto
          -28 callsubr
          -179 126 rmoveto
          hintmask 10111100
          39 callsubr
        </CharString>
        <CharString name="otilde">
          -91 -77 callsubr
          61 56 -2 57 31 callgsubr
          hintmask 11101100
          318 -105 callsubr
          231 598 -56 callgsubr
          hintmask 11011100
          -101 callgsubr
          hintmask 11101100
          -89 callgsubr
        </CharString>
        <CharString name="p">
          -15 -250 68 182 68 363 69 10 -20 21 callgsubr
          hintmask 11101001
          185 -76 callgsubr
        </CharString>
        <CharString name="paragraph">
          -80 -21 801 51 hstem
          221 69 116 68 vstem
          221 -101 rmoveto
          69 801 116 -801 68 852 -241 hlineto
          -122 -85 -42 -118 -93 77 -64 119 hvcurveto
          endchar
        </CharString>
        <CharString name="parenleft">
          -269 -151 48 922 51 hstem
          80 70 vstem
          263 -103 rmoveto
          -80 -33 103 127 hvcurveto
          501 vlineto
          118 37 73 76 vhcurveto
          51 vlineto
          -148 -35 -113 -127 hvcurveto
          -508 vlineto
          -132 33 -141 150 vhcurveto
          endchar
        </CharString>
        <CharString name="parenright">
          -269 -151 51 922 48 hstem
          123 70 vstem
          10 822 rmoveto
          80 33 -103 -127 hvcurveto
          -501 vlineto
          -118 -37 -73 -76 vhcurveto
          -51 vlineto
          148 35 113 127 hvcurveto
          508 vlineto
          132 -33 141 -150 vhcurveto
          endchar
        </CharString>
        <CharString name="percent">
          283 -130 -21 151 66 247 64 4 62 249 66 112 -20 hstem
          60 72 130 70 159 -91 callgsubr
          endchar
        </CharString>
        <CharString name="period">
          -321 -4 103 hstem
          60 101 vstem
          161 47 -87 callgsubr
          endchar
        </CharString>
        <CharString name="periodcentered">
          -321 213 103 hstem
          60 101 vstem
          161 264 -87 callgsubr
          endchar
        </CharString>
        <CharString name="perthousand">
          638 -130 -21 151 66 247 64 4 62 249 66 112 -20 hstem
          60 72 130 70 159 73 130 71 81 -91 callgsubr
          464 -427 rmoveto
          -34 hlineto
          -85 -30 -24 -88 hvcurveto
          -216 vlineto
          -97 27 -18 94 vhcurveto
          38 hlineto
          103 12 27 96 hvcurveto
          192 vlineto
          102 -17 26 -108 vhcurveto
          54 -377 rmoveto
          -130 315 130 hlineto
          endchar
        </CharString>
        <CharString name="plus">
          62 188 -21 187 66 189 -20 hstem
          267 70 vstem
          337 420 rmoveto
          189 -70 -189 -187 -66 187 -187 70 187 187 66 vlineto
          endchar
        </CharString>
        <CharString name="plusminus">
          62 121 66 233 66 170 -20 hstem
          267 70 vstem
          337 486 rmoveto
          170 -70 -170 -187 -66 187 -167 70 167 187 66 vlineto
          -444 -365 rmoveto
          444 66 -444 hlineto
          endchar
        </CharString>
        <CharString name="q">
          -5 -250 68 172 15 callgsubr
          -23 callsubr
          149 208 -145 82 hintmask 11110100
          130 -24 callsubr
          212 -240 hlineto
          -212 -134 rlineto
          hintmask 11111000
          149 -308 rmoveto
          208 68 11 callgsubr
          15 callsubr
          hintmask 11111000
          63 68 -351 hlineto
          -70 -16 -40 -48 hvcurveto
          -336 vlineto
          -55 31 -31 41 17 17 4 10 16 vhcurveto
          hintmask 11110100
          170 107 rlineto
          -293 vlineto
          hintmask 11111000
          -63 hlineto
          endchar
        </CharString>
        <CharString name="question">
          -61 -4 103 95 223 -69 69 151 182 -68 68 hstemhm
          20 73 5 80 137 86 hintmask 11001111
          93 -50 callgsubr
          222 -265 -122 hlineto
          -65 -30 -26 -62 hvcurveto
          -135 80 vlineto
          hintmask 10110111
          154 129 vlineto
          65 29 40 62 hvcurveto
          193 vlineto
          84 -39 23 -73 vhcurveto
          -269 -182 73 hlineto
          hintmask 11001111
          45 -469 rmoveto
          -28 -23 -25 -27 -29 23 -22 27 29 23 22 29 27 -23 25 -28 hvcurveto
          endchar
        </CharString>
        <CharString name="questiondown">
          -61 -4 68 -68 182 151 69 -69 223 95 103 hstemhm
          20 86 137 80 5 73 hintmask 10101111
          328 64 rmoveto
          -222 265 122 hlineto
          65 30 26 62 hvcurveto
          hintmask 10011111
          135 -80 vlineto
          hintmask 10101111
          -154 -129 vlineto
          -65 -29 -40 -62 hvcurveto
          -193 vlineto
          -84 39 -23 73 vhcurveto
          269 hlineto
          hintmask 01101111
          182 -73 vlineto
          hintmask 10101111
          -45 469 rmoveto
          28 23 25 27 29 -23 22 -27 -29 -23 -22 -29 -27 23 -25 28 hvcurveto
          endchar
        </CharString>
        <CharString name="quotedbl">
          -216 510 240 hstem
          40 82 82 82 vstem
          286 510 rmoveto
          240 -82 -240 vlineto
          -82 hmoveto
          240 -82 -240 vlineto
          endchar
        </CharString>
        <CharString name="quotedblbase">
          -176 -129 -21 240 -20 hstem
          159 90 -66 callsubr
          253 240 -24 callgsubr
        </CharString>
        <CharString name="quotedblleft">
          -39 callsubr
        </CharString>
        <CharString name="quotedblright">
          -39 callsubr
        </CharString>
        <CharString name="quoteleft">
          -365 -62 callgsubr
          endchar
        </CharString>
        <CharString name="quoteright">
          -365 -62 callgsubr
          endchar
        </CharString>
        <CharString name="quotesinglbase">
          -353 -128 -21 240 -20 hstem
          159 91 -24 callgsubr
        </CharString>
        <CharString name="quotesingle">
          -340 511 239 hstem
          60 82 vstem
          142 511 rmoveto
          239 -82 -239 vlineto
          endchar
        </CharString>
        <CharString name="r">
          -81 0 68 266 167 -68 68 -1 -20 -42 callsubr
          hintmask 11001001
          421 334 rmoveto
          89 vlineto
          hintmask 10011001
          -45 callsubr
          -123 -77 rlineto
          hintmask 11001001
          88 -144 vlineto
          hintmask 10101001
          -68 vlineto
          hintmask 10100011
          8 callgsubr
          hintmask 11001001
          -36 callgsubr
          hintmask 11000101
          -48 callsubr
          hintmask 11001001
          -21 callsubr
          endchar
        </CharString>
        <CharString name="racute">
          -81 0 68 266 167 -68 68 -1 -20 21 181 -42 callsubr
          hintmask 1001110010000000
          421 334 rmoveto
          89 -1 callgsubr
          hintmask 1100010010000000
          -123 -77 rlineto
          88 -144 -68 vlineto
          hintmask 1100001010000000
          63 -365 -36 callgsubr
          hintmask 1010000110000000
          -48 callsubr
          hintmask 1010010010000000
          -21 callsubr
          hintmask 1001110010000000
          -199 225 rmoveto
          73 hlineto
          hintmask 1100010010000000
          -47 callgsubr
        </CharString>
        <CharString name="rcaron">
          -81 0 68 266 167 -68 68 -68 249 -182 -20 -42 callsubr
          hintmask 1100010010000000
          421 334 rmoveto
          89 vlineto
          hintmask 1000110010000000
          -45 callsubr
          -123 -77 rlineto
          hintmask 1100010010000000
          88 -144 vlineto
          hintmask 1010010010000000
          -68 vlineto
          hintmask 1001000110000000
          8 callgsubr
          hintmask 1100010010000000
          -36 callgsubr
          hintmask 1100001010000000
          -48 callsubr
          hintmask 1100010010000000
          -21 callsubr
          hintmask 1001010010000000
          33 348 -103 callsubr
          endchar
        </CharString>
        <CharString name="registered">
          357 -11 66 94 60 326 64 92 68 hstemhm
          55 66 137 177 -121 71 169 67 137 68 hintmask 1111101110000000
          -78 callgsubr
          -444 163 rmoveto
          -326 vlineto
          hintmask 1111110110000000
          -56 -60 177 60 hlineto
          hintmask 1111101110000000
          -50 67 hlineto
          75 46 25 -93 rlineto
          -54 15 25 -26 52 hhcurveto
          50 60 -70 hlineto
          -40 151 43 27 rlineto
          31 19 30 19 51 vvcurveto
          53 vlineto
          50 -40 20 -45 vhcurveto
          hintmask 1111110110000000
          -278 -64 hlineto
          hintmask 1111101110000000
          127 hmoveto
          169 -85 hlineto
          -169 -108 rlineto
          endchar
        </CharString>
        <CharString name="ring">
          -364 534 49 81 48 hstem
          0 49 81 48 vstem
          623 vmoveto
          -96 callsubr
        </CharString>
        <CharString name="s">
          -82 callsubr
        </CharString>
        <CharString name="sacute">
          -103 0 68 282 150 30 callsubr
          61 68 10 callsubr
          hintmask 10011010
          129 348 rmoveto
          84 180 -94 callsubr
          -83 -180 83 -68 -151 242 vlineto
          68 18 40 48 hvcurveto
          hintmask 11001100
          62 vlineto
          44 -35 14 -55 34 vhcurveto
          -169 317 rmoveto
          73 hlineto
          hintmask 10101100
          -47 callgsubr
        </CharString>
        <CharString name="scaron">
          28 callgsubr
          -68 250 26 callsubr
          hintmask 10010110
          129 348 rmoveto
          84 180 vlineto
          hintmask 01100110
          -94 callsubr
          hintmask 10100101
          -83 -180 vlineto
          hintmask 01001101
          83 -68 -151 242 vlineto
          68 18 40 48 hvcurveto
          62 vlineto
          44 -35 14 -55 34 vhcurveto
          63 440 -103 callsubr
          endchar
        </CharString>
        <CharString name="scedilla">
          -103 -217 53 67 55 42 39 callgsubr
          hstemhm
          50 79 5 170 -62 62 5 68 -68 80 hintmask 1110101101000000
          134 -12 callsubr
          hintmask 1110011100100000
          -73 callsubr
          42 110 hlineto
          68 18 40 48 hvcurveto
          62 vlineto
          44 -35 14 -55 34 vhcurveto
          -170 106 rlineto
          84 180 vlineto
          hintmask 1101101101000000
          -94 callsubr
          hintmask 1110101101000000
          -83 -180 vlineto
          hintmask 1101101101000000
          83 -68 -151 73 vlineto
          endchar
        </CharString>
        <CharString name="scircumflex">
          28 callgsubr
          -68 250 26 callsubr
          hintmask 10010110
          129 348 rmoveto
          84 180 vlineto
          hintmask 01100110
          -94 callsubr
          hintmask 10100101
          -83 -180 vlineto
          hintmask 01001101
          83 -68 -151 242 vlineto
          68 18 40 48 hvcurveto
          62 vlineto
          44 -35 14 -55 34 vhcurveto
          -44 440 -106 callgsubr
        </CharString>
        <CharString name="section">
          20 -70 70 -70 179 69 74 248 74 67 179 -70 70 hstemhm
          60 92 -79 79 258 76 -63 79 hintmask 1011011001000000
          502 333 rmoveto
          117 vlineto
          111 -23 13 -111 vhcurveto
          -216 176 261 hlineto
          hintmask 1011100110000000
          -109 73 66 vlineto
          89 -11 24 -124 vhcurveto
          -139 hlineto
          -96 -43 0 -116 hvcurveto
          -89 vlineto
          -40 5 -34 51 -1 vhcurveto
          hintmask 1011101010000000
          -66 -2 -3 -47 -69 vvcurveto
          -120 vlineto
          -111 23 -13 111 vhcurveto
          216 -178 -261 hlineto
          hintmask 0111101001000000
          109 -73 -66 vlineto
          -89 11 -24 124 vhcurveto
          139 hlineto
          96 43 0 116 hvcurveto
          62 vlineto
          52 -1 52 -55 3 vhcurveto
          65 2 4 46 70 vvcurveto
          -79 -81 rmoveto
          -282 248 282 hlineto
          endchar
        </CharString>
        <CharString name="semicolon">
          -300 -129 -21 504 104 hstem
          79 103 vstem
          171 98 rmoveto
          -74 hlineto
          -77 -248 rlineto
          73 hlineto
          89 556 rmoveto
          28 -24 24 -28 -27 -24 -24 -28 -30 24 -22 26 29 24 22 30 vhcurveto
          endchar
        </CharString>
        <CharString name="seven">
          -87 21 -21 533 217 -68 68 hstemhm
          30 72 hintmask 11010000
          445 648 rmoveto
          102 -415 -217 72 vlineto
          hintmask 10110000
          149 270 vlineto
          -342 -682 rlineto
          91 hlineto
          endchar
        </CharString>
        <CharString name="six">
          -17 0 68 306 69 168 139 -63 63 hstemhm
          50 82 261 62 -62 82 hintmask 11101100
          387 611 rmoveto
          68 22 hlineto
          64 -20 53 -81 vhcurveto
          -184 hlineto
          -86 -34 -53 -66 hvcurveto
          -507 vlineto
          -87 34 -37 103 vhcurveto
          147 hlineto
          hintmask 11011010
          99 42 40 87 hvcurveto
          203 vlineto
          67 -27 46 -98 vhcurveto
          -218 244 255 hlineto
          hintmask 11101100
          6 -619 rmoveto
          -261 306 261 hlineto
          endchar
        </CharString>
        <CharString name="slash">
          -123 -129 -21 1020 -20 hstem
          5 -150 rmoveto
          78 hlineto
          331 1020 rlineto
          -77 hlineto
          endchar
        </CharString>
        <CharString name="space">
          -192 endchar
        </CharString>
        <CharString name="sterling">
          -11 -61 callsubr
          243 24 callsubr
          hintmask 10111010
          318 428 rmoveto
          72 -120 182 vlineto
          hintmask 10110110
          133 68 -122 0 callgsubr
          -87 -72 87 -360 -87 -68 446 vlineto
          hintmask 01111010
          -74 callgsubr
          vlineto
          hintmask 10111010
          -117 -213 360 vlineto
          endchar
        </CharString>
        <CharString name="t">
          -225 34 callgsubr
          -50 callsubr
          endchar
        </CharString>
        <CharString name="tbar">
          -225 0 68 223 63 74 72 11 callsubr
          hstemhm
          40 233 -159 78 -78 173 hintmask 11111000
          40 291 rmoveto
          hintmask 11110100
          74 -187 hlineto
          -75 29 -29 60 vhcurveto
          hintmask 11110010
          84 68 11 callgsubr
          -95 223 80 63 -80 74 hlineto
          hintmask 11111000
          81 72 11 callgsubr
          -81 182 -78 -182 hlineto
          hintmask 11111000
          -74 -72 11 callgsubr
          74 -74 hlineto
          hintmask 11111000
          -74 hlineto
          endchar
        </CharString>
        <CharString name="tcaron">
          -160 0 68 360 72 250 -50 callsubr
          187 68 rmoveto
          -74 hlineto
          -74 -211 rlineto
          72 hlineto
          endchar
        </CharString>
        <CharString name="thorn">
          -15 -250 68 182 68 442 -20 191 69 21 callgsubr
          hintmask 11111001
          185 306 rmoveto
          212 133 rlineto
          -371 -212 vlineto
          -144 -318 rmoveto
          hintmask 11110101
          -59 callsubr
          hintmask 11111001
          -66 182 202 hlineto
          75 15 39 55 hvcurveto
          351 vlineto
          42 -32 23 -37 -17 -17 -5 -10 -16 vhcurveto
          -173 -109 rlineto
          364 -145 -69 vlineto
          hintmask 11110011
          63 -863 -62 hlineto
          endchar
        </CharString>
        <CharString name="three">
          -28 0 62 -62 190 183 65 174 138 -68 68 hstemhm
          50 73 259 81 hintmask 10110110
          464 -58 callgsubr
          -414 -138 73 hlineto
          hintmask 10101110
          70 248 vlineto
          -248 -244 rlineto
          -65 259 -311 -259 vlineto
          hintmask 01101110
          128 -73 -53 vlineto
          -75 8 -62 115 vhcurveto
          152 hlineto
          124 14 45 89 hvcurveto
          187 vlineto
          85 -26 32 -89 vhcurveto
          -129 hlineto
          245 244 rlineto
          endchar
        </CharString>
        <CharString name="threesuperior">
          -246 420 39 116 42 90 43 hstem
          44 49 111 53 vstem
          258 -58 callgsubr
          -214 -73 49 30 95 hlineto
          -109 -94 rlineto
          -38 125 -116 -111 56 -49 -30 vlineto
          -36 4 -29 62 vhcurveto
          74 hlineto
          65 8 21 43 hvcurveto
          76 vlineto
          41 -15 16 -47 vhcurveto
          -44 hlineto
          107 94 rlineto
          endchar
        </CharString>
        <CharString name="tilde">
          -207 561 16 callgsubr
          hintmask 10000000
          295 666 -56 callgsubr
          hintmask 01000000
          -101 callgsubr
          hintmask 10000000
          -89 callgsubr
        </CharString>
        <CharString name="trademark">
          216 420 54 26 -20 153 117 -56 56 hstemhm
          20 56 47 62 49 54 77 58 213 60 hintmask 1101111110000000
          72 420 rmoveto
          164 54 -51 220 49 hlineto
          hintmask 1110111110000000
          -61 54 117 -268 -117 56 vlineto
          hintmask 1101111110000000
          61 47 -220 -51 vlineto
          666 hmoveto
          -42 222 42 54 -125 hlineto
          -83 -164 -83 164 rlineto
          -125 -54 43 -222 -43 -54 146 54 -45 200 hlineto
          86 -174 rlineto
          40 hlineto
          87 176 rlineto
          -202 -44 -54 146 vlineto
          endchar
        </CharString>
        <CharString name="two">
          -17 0 68 -68 160 400 190 -68 68 hstemhm
          51 77 264 83 hintmask 01101100
          50 hmoveto
          425 160 -84 hlineto
          hintmask 10101100
          -92 -263 162 vlineto
          297 188 rlineto
          37 23 12 39 37 vvcurveto
          117 vlineto
          88 -33 28 -99 vhcurveto
          -291 -190 78 hlineto
          hintmask 10011100
          122 263 -206 vlineto
          -288 -179 rlineto
          -39 -24 -15 -42 -50 vvcurveto
          endchar
        </CharString>
        <CharString name="twosuperior">
          -251 420 42 39 -20 226 43 hstem
          45 49 111 53 vstem
          44 420 rmoveto
          214 81 -53 -39 -111 55 hlineto
          47 26 43 26 47 27 rrcurveto
          20 11 7 19 17 vvcurveto
          51 vlineto
          43 -18 13 -51 vhcurveto
          -144 -95 50 52 110 -78 hlineto
          -133 -73 rlineto
          -19 -12 -9 -19 -25 vvcurveto
          endchar
        </CharString>
        <CharString name="u">
          -61 callgsubr
          -85 callsubr
          hintmask 01101010
          -99 callgsubr
          hintmask 10110001
          -28 callgsubr
          hintmask 10110100
          -38 callgsubr
          hintmask 10110010
          -90 callgsubr
          endchar
        </CharString>
        <CharString name="uacute">
          -61 callgsubr
          0 181 -85 callsubr
          hintmask 1001101000000000
          104 433 rmoveto
          -358 vlineto
          -61 38 -16 40 13 12 3 7 11 vhcurveto
          hintmask 1010100100000000
          166 104 rlineto
          -16 callgsubr
          -63 433 vlineto
          hintmask 1010101000000000
          -130 -68 49 -240 hlineto
          hintmask 1010100010000000
          -199 -125 rlineto
          433 -25 callsubr
          155 126 rmoveto
          73 hlineto
          hintmask 0110011000000000
          -47 callgsubr
        </CharString>
        <CharString name="ubreve">
          -61 callgsubr
          43 54 -54 153 -59 callgsubr
          -55 55 150 130 -81 53 -53 144 hintmask 0111001001000000
          -99 callgsubr
          hintmask 1011010000100000
          -28 callgsubr
          hintmask 1011010010000000
          -38 callgsubr
          hintmask 1011010001000000
          -90 callgsubr
          hintmask 1010101001000000
          344 264 rmoveto
          hintmask 1011010010000000
          -54 callsubr
          hintmask 1010100101000000
          -103 callgsubr
        </CharString>
        <CharString name="ucircumflex">
          -61 callgsubr
          181 -20 -98 callsubr
          280 249 -106 callgsubr
        </CharString>
        <CharString name="udieresis">
          -61 callgsubr
          57 88 -59 callgsubr
          -18 86 62 86 -66 130 -81 81 -81 144 hintmask 0111010001000000
          -99 callgsubr
          hintmask 1011100000100000
          -28 callgsubr
          hintmask 1011100010000000
          -38 callgsubr
          hintmask 1011100001000000
          -90 callgsubr
          hintmask 1011010100000000
          hintmask 1011001100000000
          213 169 rmoveto
          -107 callgsubr
          148 hmoveto
          -107 callgsubr
          endchar
        </CharString>
        <CharString name="ugrave">
          -61 callgsubr
          181 -20 -98 callsubr
          226 249 rmoveto
          -71 hlineto
          105 -123 -80 callsubr
        </CharString>
        <CharString name="uhungarumlaut">
          -61 callgsubr
          58 123 -85 callsubr
          hintmask 1011100100000000
          -99 callgsubr
          -16 callgsubr
          -34 callgsubr
          49 -240 vlineto
          hintmask 1011101000000000
          -199 -125 rlineto
          433 -25 callsubr
          80 126 rmoveto
          73 hlineto
          105 123 rlineto
          hintmask 1011100010000000
          -71 hlineto
          42 -123 rmoveto
          73 hlineto
          hintmask 0111011000000000
          -47 callgsubr
        </CharString>
        <CharString name="umacron">
          -61 callgsubr
          74 63 -98 callsubr
          116 142 -64 callsubr
        </CharString>
        <CharString name="underscore">
          -112 40 hstem
          5 -112 rmoveto
          532 40 -532 hlineto
          endchar
        </CharString>
        <CharString name="uni00AD">
          -166 238 63 hstem
          325 238 rmoveto
          63 -273 -63 vlineto
          endchar
        </CharString>
        <CharString name="uni0122">
          -198 198 0 -92 callgsubr
          13 callgsubr
          hintmask 10111000
          482 -58 callgsubr
          -315 hlineto
          -84 -23 -54 -61 hvcurveto
          -511 vlineto
          -96 32 -28 93 vhcurveto
          297 425 hlineto
          -219 -137 rlineto
          -73 vlineto
          hintmask 01110100
          -46 callgsubr
          -117 80 vlineto
          -193 -640 19 callgsubr
          hintmask 10111000
          -57 callsubr
        </CharString>
        <CharString name="uni0123">
          -19 -219 69 67 73 442 68 0 181 27 callsubr
          hintmask 11101010
          184 558 -102 callgsubr
          192 -249 rmoveto
          68 -348 vlineto
          hintmask 11100110
          -69 -16 -25 -63 hvcurveto
          -351 vlineto
          -40 32 -31 40 15 15 4 9 15 vhcurveto
          171 108 rlineto
          -261 -184 67 vlineto
          hintmask 11101010
          -68 -136 242 hlineto
          -40 callsubr
          565 vlineto
          -82 -240 rmoveto
          -210 -132 rlineto
          hintmask 11011010
          372 8 callsubr
          endchar
        </CharString>
        <CharString name="uni0136">
          63 -198 198 -47 callsubr
          hintmask 01110000
          511 68 rmoveto
          -217 322 208 292 rlineto
          67 68 -108 hlineto
          -255 -347 rlineto
          32 callsubr
          vlineto
          hintmask 01101000
          -85 callgsubr
          hintmask 01110000
          -95 callgsubr
          hintmask 01101000
          -65 305 hlineto
          -11 callsubr
          -255 -143 19 callgsubr
          hintmask 10110000
          -57 callsubr
        </CharString>
        <CharString name="uni0137">
          -35 -198 198 0 68 432 -20 202 -7 callgsubr
          hintmask 01111000
          435 68 rmoveto
          -55 callsubr
          474 -140 -68 vlineto
          hintmask 01110010
          64 -614 hlineto
          hintmask 01111000
          -64 -68 hlineto
          hintmask 01110100
          -34 callsubr
          86 68 hlineto
          -216 -143 19 callgsubr
          hintmask 10111000
          -57 callsubr
        </CharString>
        <CharString name="uni013B">
          -14 -198 198 4 callsubr
          hintmask 00111010
          65 hmoveto
          423 -74 callgsubr
          hlineto
          hintmask 01010110
          9 callgsubr
          hintmask 10011010
          65 -53 callsubr
          hintmask 01010110
          -85 callgsubr
          hintmask 10011010
          -63 hlineto
          217 -143 19 callgsubr
          -57 callsubr
        </CharString>
        <CharString name="uni013C">
          -232 -198 198 0 68 614 -33 callgsubr
          hintmask 10110000
          -30 callsubr
          hintmask 01100100
          -85 callgsubr
          hintmask 01110000
          -36 callgsubr
          hintmask 01101000
          -59 callsubr
          hintmask 01110000
          -65 hlineto
          -22 -143 19 callgsubr
          hintmask 10110000
          -57 callsubr
        </CharString>
        <CharString name="uni0145">
          177 -198 198 -47 callsubr
          299 82 hintmask 10110100
          -79 callgsubr
          hintmask 01101100
          -85 callgsubr
          hintmask 01110100
          -95 callgsubr
          hintmask 01101100
          -54 callgsubr
          -277 -757 19 callgsubr
          hintmask 10110100
          -57 callsubr
        </CharString>
        <CharString name="uni0146">
          26 -198 198 0 68 365 67 10 -20 -93 callgsubr
          hintmask 0110100010000000
          10 callgsubr
          hintmask 1001100100000000
          1 callsubr
          hintmask 1010100100000000
          -60 callsubr
          hintmask 0110001100000000
          8 callgsubr
          hintmask 0110100100000000
          -36 callgsubr
          hintmask 0110010100000000
          -48 callsubr
          hintmask 0110100010000000
          -33 callsubr
          hintmask 0110100100000000
          -48 -68 -48 callsubr
          hintmask 0110100010000000
          -226 -143 19 callgsubr
          hintmask 1010100100000000
          -57 callsubr
        </CharString>
        <CharString name="uni0156">
          104 -177 14 callsubr
          95 -92 callgsubr
          -63 callsubr
          223 198 -170 73 hintmask 11000000
          339 38 callgsubr
          hintmask 00111001
          343 266 -75 callgsubr
          hintmask 00110110
          -85 callgsubr
          hintmask 00111010
          -95 callgsubr
          hintmask 00110110
          -69 callsubr
          hintmask 00110101
          -20 callgsubr
          endchar
        </CharString>
        <CharString name="uni0157">
          -81 -198 198 0 68 365 68 -1 -20 -42 callsubr
          hintmask 10011001
          421 334 rmoveto
          89 -1 callgsubr
          -123 -77 rlineto
          hintmask 10101001
          88 -144 -68 vlineto
          hintmask 01100011
          8 callgsubr
          hintmask 01101001
          -36 callgsubr
          hintmask 01100101
          -48 callsubr
          hintmask 01101001
          -21 callsubr
          -194 -409 19 callgsubr
          hintmask 10101001
          -57 callsubr
        </CharString>
        <CharString name="uni0162">
          -13 -198 198 -5 callgsubr
          -19 callgsubr
          vstem
          -26 callgsubr
          -35 callsubr
          118 126 -614 -63 hlineto
          81 -143 19 callgsubr
          -57 callsubr
        </CharString>
        <CharString name="uni0163">
          -225 -198 198 34 callgsubr
          -20 hstemhm
          114 78 -78 173 hintmask 10111000
          114 -50 callgsubr
          -182 -74 -72 74 -324 vlineto
          -75 29 -29 60 vhcurveto
          hintmask 01110100
          84 68 hlineto
          hintmask 01111000
          -95 360 81 72 -81 182 hlineto
          17 -757 19 callgsubr
          hintmask 10111000
          -57 callsubr
        </CharString>
        <CharString name="uni0218">
          -198 198 -61 callsubr
          497 68 hstemhm
          60 80 262 71 hintmask 10011100
          247 38 callgsubr
          720 vmoveto
          160 261 -96 callgsubr
          hintmask 01011100
          -195 -270 vlineto
          hintmask 00111100
          117 -72 -185 319 vlineto
          20 callsubr
          endchar
        </CharString>
        <CharString name="uni0219">
          -103 -198 198 0 68 -68 151 281 68 26 callsubr
          hintmask 00111100
          129 348 rmoveto
          84 180 -94 callsubr
          hintmask 01011010
          -83 -180 vlineto
          hintmask 00111010
          83 -68 -151 242 vlineto
          68 18 40 48 hvcurveto
          62 vlineto
          44 -35 14 -55 34 vhcurveto
          -62 -317 19 callgsubr
          hintmask 10011100
          -57 callsubr
        </CharString>
        <CharString name="uni0401">
          27 -61 callsubr
          169 -53 callgsubr
          48 88 hstemhm
          2 callgsubr
          -11 86 62 72 -72 86 33 68 hintmask 1011010101100000
          280 842 rmoveto
          -107 callgsubr
          148 hmoveto
          -107 callgsubr
          -82 -349 rmoveto
          -71 vlineto
          hintmask 1010111010100000
          -141 260 256 hlineto
          hintmask 1011011010100000
          -77 callgsubr
          -469 vlineto
          hintmask 1010111010100000
          -71 callsubr
          hintmask 0111011010100000
          -74 callgsubr
          vlineto
          hintmask 1011011010100000
          -92 callsubr
          endchar
        </CharString>
        <CharString name="uni0402">
          144 -149 69 80 68 286 67 116 38 callsubr
          126 72 26 81 hintmask 1110111110000000
          494 421 rmoveto
          -188 261 126 hlineto
          hintmask 1111011110000000
          -145 72 213 -479 -213 72 vlineto
          hintmask 1110111110000000
          145 127 -614 -64 -68 -42 callgsubr
          -64 286 224 -434 -101 -69 65 vlineto
          66 51 39 61 hvcurveto
          350 vlineto
          90 -52 30 -65 vhcurveto
          endchar
        </CharString>
        <CharString name="uni0403">
          -24 0 68 497 -65 callgsubr
          0 178 hstemhm
          60 -101 callsubr
          220 68 hintmask 11000110
          209 805 rmoveto
          73 hlineto
          hintmask 11001010
          105 123 rlineto
          -71 hlineto
          -111 -246 rmoveto
          hintmask 10100110
          220 -117 hlineto
          hintmask 10101010
          68 185 -433 hlineto
          hintmask 11001010
          -68 63 vlineto
          hintmask 10100110
          -614 -83 callsubr
          vlineto
          hintmask 10011010
          68 -65 vlineto
          endchar
        </CharString>
        <CharString name="uni0404">
          -43 -61 callsubr
          170 67 143 -65 callgsubr
          hstemhm
          40 82 265 72 hintmask 10101110
          143 -58 callgsubr
          -74 -29 -36 -62 hvcurveto
          -554 vlineto
          -51 31 -47 72 vhcurveto
          316 hlineto
          hintmask 01110110
          185 -72 vlineto
          hintmask 10101110
          -117 -265 287 227 67 -227 260 265 vlineto
          -117 72 185 vlineto
          endchar
        </CharString>
        <CharString name="uni0405">
          -83 callgsubr
        </CharString>
        <CharString name="uni0406">
          -44 callsubr
          hstemhm
          80 -101 callsubr
          hintmask 11010000
          225 -50 callgsubr
          hintmask 11100000
          65 -53 callsubr
          hintmask 11010000
          -85 callgsubr
          hintmask 11100000
          -95 callgsubr
          hintmask 11010000
          -65 hlineto
          endchar
        </CharString>
        <CharString name="uni0407">
          -44 callsubr
          48 88 hstemhm
          80 75 -75 -101 callsubr
          -8 86 hintmask 11100100
          225 -50 callgsubr
          hintmask 11101000
          65 -53 callsubr
          hintmask 11100100
          -85 callgsubr
          hintmask 11110010
          -36 callgsubr
          hintmask 11101000
          -59 callsubr
          hintmask 11100100
          -65 hlineto
          hintmask 11110010
          -70 774 rmoveto
          -107 callgsubr
          148 hmoveto
          -107 callgsubr
          endchar
        </CharString>
        <CharString name="uni0408">
          -136 -5 callgsubr
          194 82 vstem
          341 -58 callgsubr
          -211 -68 64 -614 -174 -68 149 hlineto
          84 23 63 54 hvcurveto
          565 65 vlineto
          endchar
        </CharString>
        <CharString name="uni0409">
          385 -5 callgsubr
          460 83 251 73 vstem
          543 463 rmoveto
          219 70 68 -362 -22 callgsubr
          -59 -69 371 hlineto
          -51 callsubr
          21 -250 -41 callgsubr
          endchar
        </CharString>
        <CharString name="uni040A">
          377 -18 callsubr
          hstemhm
          50 -10 callsubr
          197 214 -153 83 251 73 hintmask 11110011
          536 463 rmoveto
          219 vlineto
          hintmask 11110101
          70 68 -214 -68 hlineto
          hintmask 11101011
          61 -261 -258 261 hlineto
          hintmask 11110101
          61 -15 callsubr
          hlineto
          hintmask 11101101
          -85 callgsubr
          hintmask 11110101
          -63 -31 callsubr
          hintmask 11101011
          -61 286 258 -286 hlineto
          hintmask 11110101
          -61 -68 373 hlineto
          -51 callsubr
          hintmask 11110011
          21 -250 -41 callgsubr
          endchar
        </CharString>
        <CharString name="uni040B">
          194 0 68 285 67 117 38 callsubr
          125 73 26 81 hintmask 11011111
          611 68 rmoveto
          232 vlineto
          90 -53 30 -65 vhcurveto
          -187 262 125 hlineto
          hintmask 11101111
          -145 73 213 -479 -213 72 vlineto
          hintmask 11011111
          145 127 -614 -63 -68 208 68 -63 285 224 -285 -63 -68 209 68 vlineto
          endchar
        </CharString>
        <CharString name="uni040C">
          43 0 -92 callgsubr
          171 -20 hstemhm
          50 -101 callsubr
          hintmask 11101000
          233 798 -102 callgsubr
          156 -853 rmoveto
          hintmask 11110000
          -217 322 208 292 rlineto
          67 68 hlineto
          hintmask 11101000
          -108 hlineto
          -255 -347 rlineto
          hintmask 11110000
          32 callsubr
          -67 callsubr
          -17 callgsubr
          305 vlineto
          -11 callsubr
          endchar
        </CharString>
        <CharString name="uni040E">
          54 0 -92 callgsubr
          34 -43 callgsubr
          25 165 -53 53 188 66 -66 193 -180 53 hintmask 1101100100000000
          -52 callsubr
          hintmask 1101100010000000
          315 255 rmoveto
          hintmask 1110101000000000
          -54 callsubr
          hintmask 1101011000000000
          -103 callgsubr
        </CharString>
        <CharString name="uni040F">
          156 6 callgsubr
          65 -10 callsubr
          94 80 33 206 -145 82 hintmask 10101110
          210 -50 callgsubr
          hintmask 10110110
          61 -15 callsubr
          hlineto
          hintmask 10101110
          -85 callgsubr
          hintmask 01110110
          -63 -68 239 hlineto
          hintmask 10110110
          -150 80 vlineto
          hintmask 01110110
          150 239 68 vlineto
          hintmask 10110101
          15 callsubr
          hintmask 10110110
          63 -15 callsubr
          hlineto
          hintmask 10101101
          61 -614 -268 hlineto
          endchar
        </CharString>
        <CharString name="uni0410">
          -49 callgsubr
          hstem
          25 195 201 195 vstem
          -107 callsubr
          endchar
        </CharString>
        <CharString name="uni0411">
          56 0 68 497 -65 callgsubr
          hstemhm
          2 callgsubr
          239 68 -56 82 hintmask 10111000
          205 513 rmoveto
          169 239 vlineto
          hintmask 11011000
          -77 callgsubr
          -452 vlineto
          hintmask 10110100
          -68 -67 callsubr
          -63 -68 361 vlineto
          83 34 25 93 hvcurveto
          108 vlineto
          57 -38 45 -65 40 vhcurveto
          21 -300 rmoveto
          -251 363 hlineto
          251 -158 rlineto
          endchar
        </CharString>
        <CharString name="uni0412">
          -81 callsubr
        </CharString>
        <CharString name="uni0413">
          -24 0 68 497 -65 callgsubr
          hstemhm
          60 -101 callsubr
          220 68 hintmask 10101100
          205 -50 callgsubr
          220 hlineto
          hintmask 11010100
          -77 callgsubr
          -433 vlineto
          hintmask 10110100
          -68 vlineto
          hintmask 10101100
          -85 callgsubr
          hintmask 11010100
          -95 callgsubr
          hintmask 10101100
          -65 hlineto
          endchar
        </CharString>
        <CharString name="uni0414">
          117 6 callgsubr
          30 80 359 81 -1 80 hintmask 10111000
          117 68 rmoveto
          -87 -218 80 hlineto
          hintmask 01110100
          150 439 vlineto
          hintmask 10110100
          -150 80 218 vlineto
          hintmask 10111000
          -79 682 -293 -68 78 hlineto
          134 -614 rmoveto
          -272 hlineto
          216 614 rlineto
          56 hlineto
          endchar
        </CharString>
        <CharString name="uni0415">
          42 -61 callsubr
          169 -53 callgsubr
          -56 callsubr
          hintmask 10101111
          -88 callgsubr
          vlineto
          hintmask 10110111
          -77 callgsubr
          -469 vlineto
          hintmask 10101111
          -71 callsubr
          hintmask 01110111
          -74 callgsubr
          vlineto
          hintmask 10110111
          -92 callsubr
          endchar
        </CharString>
        <CharString name="uni0416">
          256 0 -92 callgsubr
          hstemhm
          295 -101 callsubr
          hintmask 11010000
          711 68 rmoveto
          -196 322 188 292 rlineto
          60 68 -97 hlineto
          -226 -341 rlineto
          273 vlineto
          hintmask 11100000
          65 -53 callsubr
          hintmask 11010000
          63 -273 hlineto
          -226 341 rlineto
          -97 -68 61 hlineto
          187 -292 -196 -322 rlineto
          -57 -68 102 hlineto
          226 372 rlineto
          -304 vlineto
          hintmask 11100000
          -95 callgsubr
          hintmask 11010000
          -65 305 hlineto
          226 -373 rlineto
          102 68 hlineto
          endchar
        </CharString>
        <CharString name="uni0417">
          3 0 68 -68 230 137 76 120 187 -63 63 hstemhm
          60 82 115 208 -77 77 -62 82 hintmask 1011010100000000
          465 502 rmoveto
          26 callgsubr
          -177 hlineto
          -86 -29 -53 -66 hvcurveto
          -68 77 vlineto
          hintmask 1010110100000000
          124 251 -244 vlineto
          hintmask 1011011000000000
          -131 -76 hlineto
          hintmask 1011010010000000
          146 -299 -261 hlineto
          hintmask 0111010010000000
          162 -82 -96 -13 callsubr
          hintmask 1011011000000000
          31 2 29 39 52 vvcurveto
          endchar
        </CharString>
        <CharString name="uni0418">
          123 -6 callgsubr
          145 -81 81 273 82 -82 147 hintmask 11101000
          550 -50 callgsubr
          hintmask 11100100
          65 68 22 callgsubr
          hintmask 11011000
          64 -614 hlineto
          hintmask 11101000
          24 callgsubr
          hintmask 11100100
          147 68 hlineto
          hintmask 11101000
          -65 hlineto
          endchar
        </CharString>
        <CharString name="uni0419">
          123 0 -92 callgsubr
          30 -43 callgsubr
          50 145 -81 81 -10 53 201 53 -24 82 -82 147 hintmask 1110100010000000
          550 -50 callgsubr
          hintmask 1110100001000000
          65 68 hlineto
          hintmask 1110100100000000
          22 callgsubr
          hintmask 1110010100000000
          64 -614 hlineto
          hintmask 1110100010000000
          24 callgsubr
          hintmask 1110100001000000
          147 68 hlineto
          hintmask 1101100010000000
          -65 hlineto
          hintmask 1101100100000000
          -111 865 rmoveto
          hintmask 1110100100000000
          -54 callsubr
          hintmask 1101001100000000
          -103 callgsubr
        </CharString>
        <CharString name="uni041A">
          43 -6 callgsubr
          -101 callsubr
          hintmask 11100000
          496 -68 callsubr
        </CharString>
        <CharString name="uni041B">
          94 0 -92 callgsubr
          hstemhm
          401 200 -141 82 hintmask 11010000
          542 69 rmoveto
          681 -291 -22 callgsubr
          hlineto
          hintmask 11100000
          -59 -69 200 69 hlineto
          endchar
        </CharString>
        <CharString name="uni041C">
          -86 callgsubr
        </CharString>
        <CharString name="uni041D">
          126 -18 callsubr
          hstemhm
          50 -8 callgsubr
          hintmask 11110100
          618 -74 callsubr
        </CharString>
        <CharString name="uni041E">
          -5 callgsubr
          60 80 262 80 vstem
          -104 callgsubr
          endchar
        </CharString>
        <CharString name="uni041F">
          136 0 -92 callgsubr
          hstemhm
          60 -10 callsubr
          207 206 -145 82 hintmask 11101000
          618 -50 callgsubr
          68 -558 -68 vlineto
          hintmask 11011000
          -85 callgsubr
          hintmask 11101000
          -63 -31 callsubr
          hintmask 11010100
          -61 614 268 -614 hlineto
          hintmask 11101000
          -61 -31 callsubr
          hintmask 11100100
          15 callsubr
          endchar
        </CharString>
        <CharString name="uni0420">
          37 0 68 613 69 hstemhm
          50 -101 callsubr
          251 73 hintmask 11101000
          407 -58 callgsubr
          -357 -69 hlineto
          hintmask 11011000
          63 -613 -9 callsubr
          210 -75 callsubr
        </CharString>
        <CharString name="uni0421">
          -7 -78 callsubr
          hstemhm
          60 82 265 68 hintmask 10011100
          -46 callsubr
          hlineto
          hintmask 10101100
          -87 callsubr
          307 hlineto
          hintmask 01101100
          -74 callgsubr
          vlineto
          endchar
        </CharString>
        <CharString name="uni0422">
          -64 callgsubr
        </CharString>
        <CharString name="uni0423">
          54 -5 callgsubr
          25 174 179 193 vstem
          -52 callsubr
          endchar
        </CharString>
        <CharString name="uni0424">
          129 0 68 67 69 358 66 53 68 hstemhm
          40 81 109 210 -143 76 176 82 hintmask 11111011
          513 628 rmoveto
          -140 53 hlineto
          hintmask 11111101
          67 -53 callsubr
          hintmask 11111011
          67 -53 -140 hlineto
          -99 -18 -53 -85 hvcurveto
          -227 vlineto
          -92 31 -36 100 vhcurveto
          126 -67 -65 -68 212 68 -69 67 124 hlineto
          101 31 36 92 hvcurveto
          227 vlineto
          85 -18 53 -100 vhcurveto
          -392 -424 rmoveto
          358 176 -358 vlineto
          252 hmoveto
          -176 358 176 hlineto
          endchar
        </CharString>
        <CharString name="uni0425">
          -73 callgsubr
        </CharString>
        <CharString name="uni0426">
          123 -150 217 -67 67 615 68 hstemhm
          50 -10 callsubr
          268 82 hintmask 10101100
          545 23 callgsubr
          -15 callsubr
          61 -615 -268 615 hlineto
          hintmask 10110100
          61 -15 callsubr
          hlineto
          hintmask 10101100
          -85 callgsubr
          hintmask 01110100
          -63 -68 495 hlineto
          hintmask 10110100
          -150 80 218 -80 vlineto
          endchar
        </CharString>
        <CharString name="uni0427">
          70 0 -92 callgsubr
          hstemhm
          89 79 185 209 -144 82 hintmask 11110000
          562 -50 callgsubr
          68 -209 -68 vlineto
          hintmask 11101000
          65 -324 hlineto
          -250 157 rlineto
          167 65 68 -208 -68 64 -119 vlineto
          -82 55 -32 55 -34 vhcurveto
          219 -138 rlineto
          -209 vlineto
          hintmask 11110000
          -65 -68 209 68 hlineto
          hintmask 11101000
          -62 614 hlineto
          endchar
        </CharString>
        <CharString name="uni0428">
          387 -6 callgsubr
          209 -145 81 230 80 164 210 -145 81 hintmask 11101100
          50 -4 callgsubr
          vlineto
          hintmask 11011100
          64 -614 hlineto
          hintmask 11101100
          -64 -68 829 68 hlineto
          hintmask 11101010
          -64 614 hlineto
          hintmask 11101100
          64 -53 callsubr
          hintmask 11011010
          17 callsubr
          -229 614 63 68 -208 -68 17 callsubr
          -230 614 hlineto
          hintmask 11101100
          64 68 hlineto
          endchar
        </CharString>
        <CharString name="uni0429">
          403 6 callgsubr
          50 209 -145 81 230 80 229 81 hintmask 10101110
          815 -50 callgsubr
          64 -79 callsubr
          17 callsubr
          -229 614 63 68 -208 -68 17 callsubr
          -230 614 hlineto
          hintmask 10110110
          64 68 -209 -68 hlineto
          hintmask 10101110
          64 -614 hlineto
          hintmask 01110110
          -64 -68 765 hlineto
          hintmask 10110110
          -150 80 218 -80 vlineto
          endchar
        </CharString>
        <CharString name="uni042A">
          111 0 68 497 -65 callgsubr
          hstemhm
          50 68 99 82 251 73 hintmask 11011100
          50 565 rmoveto
          68 hlineto
          hintmask 10111100
          117 99 -614 -63 -68 374 vlineto
          -51 callsubr
          -230 145 rlineto
          219 70 68 -319 vlineto
          hintmask 11011100
          500 -682 -41 callgsubr
          endchar
        </CharString>
        <CharString name="uni042B">
          302 -6 callgsubr
          215 -152 82 251 73 -84 callsubr
          hintmask 11011100
          195 463 rmoveto
          219 vlineto
          hintmask 11101100
          70 68 -215 -68 hlineto
          hintmask 11011100
          -85 callgsubr
          hintmask 11101100
          -63 -68 374 hlineto
          -51 callsubr
          hintmask 11011010
          21 -250 -41 callgsubr
          283 459 rmoveto
          hintmask 11101100
          65 -53 callsubr
          hintmask 11101010
          -85 callgsubr
          hintmask 11101100
          -95 callgsubr
          hintmask 11101010
          -65 hlineto
          endchar
        </CharString>
        <CharString name="uni042C">
          7 -6 callgsubr
          215 -152 82 251 73 hintmask 11011000
          195 463 rmoveto
          219 vlineto
          hintmask 11101000
          70 68 -215 -68 hlineto
          hintmask 11011000
          -85 callgsubr
          hintmask 11101000
          -63 -68 374 hlineto
          -51 callsubr
          hintmask 11011000
          21 -250 -41 callgsubr
          endchar
        </CharString>
        <CharString name="uni042D">
          -43 -61 callsubr
          170 67 143 -65 callgsubr
          hstemhm
          40 72 265 82 hintmask 10110110
          356 -58 callgsubr
          -316 -185 72 hlineto
          hintmask 10101110
          117 265 -260 -227 -67 227 -287 -265 vlineto
          hintmask 01110110
          117 -72 -185 316 vlineto
          72 31 47 51 hvcurveto
          554 vlineto
          62 -29 36 -74 vhcurveto
          endchar
        </CharString>
        <CharString name="uni042E">
          247 -18 callsubr
          hstemhm
          50 -101 callsubr
          151 80 223 80 hintmask 11101110
          457 -58 callgsubr
          -91 -20 -50 -83 hvcurveto
          -196 -151 261 vlineto
          hintmask 11110110
          65 -53 callsubr
          hintmask 11101110
          -85 callgsubr
          hintmask 11110110
          -95 callgsubr
          hintmask 11101110
          -65 286 151 -233 hlineto
          -73 27 -48 92 vhcurveto
          153 hlineto
          -48 callgsubr
          18 callsubr
          88 -35 45 -81 vhcurveto
          -187 -68 rmoveto
          223 -614 -223 hlineto
          endchar
        </CharString>
        <CharString name="uni042F">
          109 0 -92 callgsubr
          hstemhm
          20 198 -101 73 186 210 -145 82 hintmask 11010100
          20 68 rmoveto
          -68 vlineto
          hintmask 11100100
          198 68 hlineto
          hintmask 11101000
          -54 hlineto
          171 275 106 -65 rlineto
          -210 vlineto
          hintmask 11100100
          -65 -68 -42 callgsubr
          -63 614 63 68 hlineto
          hintmask 11011000
          -357 hlineto
          -88 -24 -26 -99 hvcurveto
          -62 vlineto
          -100 33 -5 123 -76 vhcurveto
          -197 -314 rlineto
          365 290 rmoveto
          -251 155 rlineto
          169 251 vlineto
          endchar
        </CharString>
        <CharString name="uni0430">
          -44 -62 callsubr
          hstemhm
          25 80 208 82 hintmask 11011000
          395 68 rmoveto
          346 vlineto
          56 -25 30 -67 vhcurveto
          -250 -126 64 hlineto
          hintmask 10111000
          -104 callsubr
          endchar
        </CharString>
        <CharString name="uni0431">
          -71 -1 68 443 -20 260 -20 hstem
          50 81 209 81 vstem
          338 -58 callgsubr
          -51 vlineto
          -208 -130 rlineto
          -58 -37 -22 -39 -53 vvcurveto
          -352 vlineto
          -55 25 -34 68 vhcurveto
          185 hlineto
          68 25 34 55 hvcurveto
          344 vlineto
          39 -34 39 -48 -18 -19 -5 -13 -21 vhcurveto
          -150 -94 rlineto
          90 vlineto
          206 129 rlineto
          50 31 32 21 51 vvcurveto
          30 vlineto
          -79 -301 rmoveto
          -382 -209 252 vlineto
          endchar
        </CharString>
        <CharString name="uni0432">
          -40 0 69 610 71 hstem
          103 82 86 81 45 80 vstem
          352 476 rmoveto
          185 vlineto
          56 -32 33 -70 vhcurveto
          -209 -68 62 -614 -63 -68 348 hlineto
          74 15 41 47 hvcurveto
          318 vlineto
          58 -34 28 -38 -16 -18 -4 -9 -15 vhcurveto
          -171 -108 rmoveto
          308 86 -254 vlineto
          126 -356 rmoveto
          -212 222 hlineto
          212 133 rlineto
          endchar
        </CharString>
        <CharString name="uni0433">
          -100 0 67 269 164 -71 71 4 callgsubr
          hintmask 10101100
          -77 362 156 hlineto
          hintmask 11010100
          -93 70 164 -367 vlineto
          hintmask 10110100
          -71 vlineto
          hintmask 10101100
          36 callsubr
        </CharString>
        <CharString name="uni0434">
          -7 -137 204 -67 67 363 70 hstemhm
          20 70 277 75 1 72 hintmask 10111100
          515 -137 rmoveto
          204 -73 433 -274 -70 69 vlineto
          -148 -363 rlineto
          -69 -204 70 hlineto
          hintmask 01111100
          137 353 vlineto
          hintmask 10111100
          -137 vlineto
          -76 204 rmoveto
          -201 hlineto
          147 363 rlineto
          54 hlineto
          endchar
        </CharString>
        <CharString name="uni0435">
          -71 callgsubr
          -29 callsubr
          hintmask 10111000
          -106 callsubr
          hintmask 01111000
          53 -79 vlineto
          hintmask 10111000
          -97 callgsubr
          endchar
        </CharString>
        <CharString name="uni0436">
          114 -77 callsubr
          hstemhm
          226 204 -140 76 hintmask 11010000
          584 68 rmoveto
          -139 197 136 167 rlineto
          49 68 -70 hlineto
          -194 -224 rlineto
          156 vlineto
          hintmask 11100000
          64 68 -204 -68 hlineto
          hintmask 11010000
          64 -156 hlineto
          -194 224 rlineto
          -70 -68 49 hlineto
          136 -167 -139 -197 rlineto
          -47 -68 77 hlineto
          188 252 rlineto
          -184 vlineto
          35 callgsubr
          -64 184 hlineto
          188 -252 rlineto
          77 68 hlineto
          endchar
        </CharString>
        <CharString name="uni0437">
          -107 0 68 -68 146 79 66 -32 241 -146 146 -69 69 hstemhm
          50 67 53 207 -69 69 hintmask 1001001100000000
          377 333 rmoveto
          78 vlineto
          56 -20 33 -75 vhcurveto
          -232 hlineto
          hintmask 1010101100000000
          -146 67 vlineto
          hintmask 1010011100000000
          77 182 -140 -129 -66 vlineto
          hintmask 1010101010000000
          138 -157 -191 hlineto
          hintmask 0101001100000000
          28 callsubr
          105 vlineto
          44 -25 21 -49 1 vhcurveto
          47 2 19 41 31 vvcurveto
          endchar
        </CharString>
        <CharString name="uni0438">
          49 0 70 360 70 hstemhm
          45 141 -77 77 218 78 -78 142 hintmask 11101000
          482 430 rmoveto
          hintmask 11100100
          12 callgsubr
          hintmask 11011000
          64 -360 hlineto
          hintmask 11101000
          23 callsubr
          hintmask 11100100
          142 68 hlineto
          hintmask 11101000
          -64 hlineto
          endchar
        </CharString>
        <CharString name="uni0439">
          49 0 70 360 70 -40 callgsubr
          45 141 -77 77 -40 53 205 49 -49 78 -78 142 hintmask 1110100010000000
          482 430 rmoveto
          hintmask 1110100001000000
          12 callgsubr
          hintmask 1110010100000000
          64 -360 hlineto
          hintmask 1110100100000000
          23 callsubr
          hintmask 1110100001000000
          142 68 hlineto
          hintmask 1101100010000000
          -64 hlineto
          -82 629 rmoveto
          hintmask 1110100100000000
          -54 callsubr
          hintmask 1101001100000000
          -103 callgsubr
        </CharString>
        <CharString name="uni043A">
          -25 -77 callsubr
          hstemhm
          45 204 -140 80 hintmask 11100000
          45 -24 callsubr
          hintmask 11010000
          64 -364 hlineto
          35 callgsubr
          -60 184 hlineto
          217 -252 rlineto
          86 68 -52 hlineto
          -55 callsubr
          156 vlineto
          hintmask 11100000
          64 68 -204 hlineto
          endchar
        </CharString>
        <CharString name="uni043B">
          20 0 67 363 70 hstem
          376 76 vstem
          452 67 rmoveto
          433 -276 -12 callgsubr
          62 -363 -66 -67 207 67 hlineto
          endchar
        </CharString>
        <CharString name="uni043C">
          170 -77 callsubr
          hstemhm
          45 209 -144 75 273 209 -140 75 hintmask 11101000
          667 68 rmoveto
          hintmask 11100100
          -65 364 hlineto
          hintmask 11101000
          65 68 -178 hlineto
          -133 -276 -132 276 rlineto
          -179 -68 hlineto
          hintmask 11011000
          65 -364 hlineto
          hintmask 11101000
          -65 -68 209 68 hlineto
          hintmask 11010100
          -69 356 hlineto
          145 -305 rlineto
          48 hlineto
          149 310 rlineto
          -361 vlineto
          hintmask 11101000
          -69 -68 209 hlineto
          endchar
        </CharString>
        <CharString name="uni043D">
          59 0 68 154 72 136 70 9 callsubr
          170 200 -142 78 hintmask 11110100
          356 hmoveto
          200 68 hlineto
          hintmask 11110010
          -64 362 11 callgsubr
          64 70 -200 -70 hlineto
          hintmask 11101010
          58 -136 -228 136 11 callgsubr
          58 70 -199 -70 hlineto
          hintmask 11101100
          64 -362 11 callgsubr
          29 callgsubr
          hintmask 11101010
          -58 154 228 -154 11 callgsubr
          -58 hlineto
          endchar
        </CharString>
        <CharString name="uni043E">
          -71 -77 callsubr
          hstem
          50 81 209 81 vstem
          328 -105 callsubr
          endchar
        </CharString>
        <CharString name="uni043F">
          44 0 68 362 70 9 callsubr
          155 200 -142 78 hintmask 11101000
          341 hmoveto
          200 68 hlineto
          hintmask 11100100
          -64 362 hlineto
          hintmask 11101000
          64 70 -496 -70 hlineto
          hintmask 11011000
          64 -362 hlineto
          hintmask 11101000
          29 callgsubr
          hintmask 11010100
          -58 362 213 -362 hlineto
          hintmask 11101000
          -58 hlineto
          endchar
        </CharString>
        <CharString name="uni0440">
          -10 -250 68 182 68 363 69 10 -20 hstemhm
          45 145 -145 211 -148 82 212 80 hintmask 11101001
          190 -76 callgsubr
        </CharString>
        <CharString name="uni0441">
          -106 -70 callsubr
        </CharString>
        <CharString name="uni0442">
          -97 0 68 268 164 -71 71 hstemhm
          25 70 88 79 90 68 hintmask 10111100
          105 hmoveto
          235 68 -78 361 90 hlineto
          hintmask 11011100
          -93 68 164 -395 -164 70 vlineto
          hintmask 10111100
          93 88 -361 -78 vlineto
          endchar
        </CharString>
        <CharString name="uni0443">
          -13 -250 67 615 68 hstem
          25 182 119 183 vstem
          326 500 rmoveto
          -68 48 vlineto
          -102 -342 -112 342 rlineto
          47 68 -182 -68 61 hlineto
          151 -461 -45 -154 rlineto
          -78 -67 63 hlineto
          58 21 32 57 17 hvcurveto
          176 593 rlineto
          60 68 hlineto
          endchar
        </CharString>
        <CharString name="uni0444">
          82 -210 68 142 67 362 71 141 69 hstemhm
          50 75 78 219 -147 75 152 72 hintmask 11111011
          487 500 rmoveto
          -137 141 hlineto
          hintmask 11111101
          72 69 -219 -69 hlineto
          hintmask 11111011
          72 -141 -131 hlineto
          -68 -26 -36 -54 hvcurveto
          -322 vlineto
          -52 21 -36 73 vhcurveto
          131 -142 hlineto
          hintmask 11111101
          -72 -68 219 68 hlineto
          hintmask 11111011
          -72 142 136 hlineto
          80 8 36 52 hvcurveto
          322 vlineto
          54 -12 36 -75 vhcurveto
          -212 -433 rmoveto
          -150 362 150 hlineto
          227 -362 rmoveto
          -152 362 152 hlineto
          endchar
        </CharString>
        <CharString name="uni0445">
          -44 -77 callsubr
          hstem
          25 -60 callgsubr
        </CharString>
        <CharString name="uni0446">
          39 37 callgsubr
          45 200 -136 78 155 209 -151 77 2 72 hintmask 10110011
          479 -134 rmoveto
          72 204 -74 362 64 68 hlineto
          hintmask 10110100
          -199 -68 hlineto
          hintmask 10101011
          58 -362 -213 362 hlineto
          hintmask 10110100
          58 68 -200 -68 hlineto
          hintmask 10101100
          64 -362 hlineto
          hintmask 01110011
          -64 -70 434 hlineto
          endchar
        </CharString>
        <CharString name="uni0447">
          6 0 67 362 71 hstemhm
          30 197 -134 77 133 200 -142 79 hintmask 11101000
          298 hmoveto
          205 67 hlineto
          hintmask 11100100
          -63 362 hlineto
          hintmask 11101000
          63 71 -200 -71 hlineto
          hintmask 11010100
          58 -96 hlineto
          -191 -119 rlineto
          215 vlineto
          hintmask 11101000
          57 71 -197 -71 hlineto
          hintmask 11010100
          63 -216 hlineto
          -36 32 -31 40 16 18 6 11 18 vhcurveto
          144 92 rlineto
          -188 -63 vlineto
          endchar
        </CharString>
        <CharString name="uni0448">
          270 0 -3 callsubr
          197 -141 77 hintmask 11101001
          703 429 rmoveto
          hintmask 11101010
          64 71 -197 -71 hlineto
          hintmask 11100101
          56 -358 -182 358 hlineto
          hintmask 11101010
          56 71 -189 -71 hlineto
          hintmask 11010110
          56 -358 -181 358 hlineto
          hintmask 11101010
          56 71 -197 -71 hlineto
          hintmask 11011010
          64 -358 hlineto
          hintmask 11101010
          -64 -71 722 71 hlineto
          hintmask 11101001
          -64 hlineto
          endchar
        </CharString>
        <CharString name="uni0449">
          274 -133 204 -71 -3 callsubr
          206 -150 77 1 72 hintmask 1011010011000000
          704 -133 rmoveto
          72 204 -73 358 64 71 hlineto
          hintmask 1011010100000000
          -197 -71 hlineto
          hintmask 1011001011000000
          56 -358 -182 358 hlineto
          hintmask 1011010100000000
          56 71 -189 -71 hlineto
          hintmask 1010101100000000
          56 -358 -181 358 hlineto
          hintmask 1011010100000000
          56 71 -197 -71 hlineto
          hintmask 1010110100000000
          64 -358 hlineto
          hintmask 0111010011000000
          -64 -71 659 hlineto
          endchar
        </CharString>
        <CharString name="uni044A">
          13 0 68 268 164 -71 71 hstemhm
          30 70 71 79 196 79 hintmask 11011100
          30 336 rmoveto
          70 hlineto
          hintmask 10111100
          93 71 -358 -64 -71 330 vlineto
          -72 callgsubr
          6 callsubr
          67 71 -287 vlineto
          hintmask 11011100
          416 -432 rmoveto
          -37 callsubr
        </CharString>
        <CharString name="uni044B">
          242 0 68 361 71 hstemhm
          45 210 -145 78 196 79 66 -101 callsubr
          hintmask 11101100
          45 hmoveto
          330 hlineto
          -72 callgsubr
          hintmask 11011100
          6 callsubr
          vlineto
          hintmask 11101100
          67 71 -210 -71 hlineto
          hintmask 11011100
          65 -358 hlineto
          hintmask 11101010
          -65 hlineto
          629 361 rmoveto
          hintmask 11101100
          65 -53 callsubr
          hintmask 11101010
          63 -364 hlineto
          hintmask 11101100
          -95 callgsubr
          hintmask 11011010
          -65 hlineto
          -290 hmoveto
          -37 callsubr
        </CharString>
        <CharString name="uni044C">
          -24 0 68 361 71 hstemhm
          50 210 -146 79 196 79 hintmask 11101000
          50 hmoveto
          330 hlineto
          -72 callgsubr
          hintmask 11011000
          6 callsubr
          vlineto
          hintmask 11101000
          67 71 -210 -71 hlineto
          hintmask 11011000
          64 -358 hlineto
          hintmask 11101000
          -64 hlineto
          339 -3 rmoveto
          hintmask 11011000
          -37 callsubr
        </CharString>
        <CharString name="uni044D">
          20 callgsubr
          67 53 215 -77 77 hintmask 10110101
          308 68 rmoveto
          -191 hlineto
          hintmask 01110110
          28 callsubr
          323 vlineto
          56 -19 33 -75 vhcurveto
          -241 -146 67 hlineto
          hintmask 10101101
          77 191 -140 vlineto
          hintmask 10110110
          -138 -66 hlineto
          hintmask 10110101
          138 hlineto
          endchar
        </CharString>
        <CharString name="uni044E">
          161 0 68 154 72 138 68 9 callsubr
          126 81 179 81 hintmask 11101110
          560 hmoveto
          68 25 34 55 hvcurveto
          322 vlineto
          53 -20 36 -73 vhcurveto
          -155 hlineto
          -75 -18 -36 -53 hvcurveto
          -117 -126 136 vlineto
          hintmask 11110110
          58 70 -199 -70 hlineto
          hintmask 11101110
          64 -362 hlineto
          hintmask 11110110
          29 callgsubr
          hintmask 11101110
          -58 154 126 -133 hlineto
          -55 25 -34 68 vhcurveto
          -12 -24 callsubr
          179 -364 -179 hlineto
          endchar
        </CharString>
        <CharString name="uni044F">
          -34 0 67 365 68 hstemhm
          65 75 132 195 -140 78 hintmask 11110000
          467 -24 callsubr
          68 -307 vlineto
          -50 -45 -22 -56 hvcurveto
          -59 vlineto
          -53 29 -19 33 -21 vhcurveto
          58 -38 -107 -165 rlineto
          -63 -67 58 hlineto
          58 11 38 51 33 hvcurveto
          69 105 rlineto
          hintmask 11101000
          83 -54 rlineto
          -73 vlineto
          hintmask 11110000
          -55 -67 195 67 hlineto
          hintmask 11101000
          -62 365 3 callgsubr
          hintmask 11101000
          -78 -220 rmoveto
          -187 122 rlineto
          98 187 vlineto
          endchar
        </CharString>
        <CharString name="uni0451">
          -71 callgsubr
          56 88 -23 callsubr
          -14 86 62 86 -15 80 hintmask 10110110
          202 601 rmoveto
          -107 callgsubr
          148 hmoveto
          -107 callgsubr
          hintmask 10111001
          -220 -462 rmoveto
          285 180 rlineto
          93 vlineto
          67 -28 22 -65 vhcurveto
          -169 hlineto
          -72 -31 -34 -65 hvcurveto
          -329 vlineto
          -40 23 -33 57 vhcurveto
          205 hlineto
          57 23 33 40 hvcurveto
          hintmask 01111001
          53 -79 vlineto
          hintmask 10111001
          -97 callgsubr
          endchar
        </CharString>
        <CharString name="uni0452">
          24 -149 69 80 68 183 67 115 67 182 68 hstemhm
          66 146 -146 210 -146 82 112 182 -81 81 hintmask 1111100110000000
          60 433 rmoveto
          70 -365 hlineto
          hintmask 1111110010000000
          -64 -68 hlineto
          hintmask 1111101010000000
          -59 callsubr
          hintmask 1111110001000000
          -64 183 213 -331 hlineto
          hintmask 1111110010000000
          -101 -69 65 hlineto
          66 51 39 61 hvcurveto
          247 vlineto
          90 -52 30 -65 vhcurveto
          -177 115 223 67 -223 250 -43 callsubr
          hlineto
          hintmask 1111100110000000
          63 -182 -70 hlineto
          endchar
        </CharString>
        <CharString name="uni0453">
          -100 0 67 269 164 -71 71 -16 callsubr
          50 218 -153 76 156 70 hintmask 11001010
          hintmask 10100110
          157 559 rmoveto
          73 hlineto
          hintmask 10101010
          105 123 rlineto
          -71 hlineto
          -214 -682 rmoveto
          218 hlineto
          hintmask 11001010
          67 -77 vlineto
          hintmask 10100110
          362 156 -93 vlineto
          hintmask 10011010
          70 164 -367 -71 65 -362 -65 hlineto
          endchar
        </CharString>
        <CharString name="uni0454">
          20 callgsubr
          77 -77 215 53 67 hintmask 10110101
          127 225 rmoveto
          hintmask 10110011
          138 66 hlineto
          hintmask 10101101
          -138 140 191 hlineto
          hintmask 10110101
          -77 67 146 -241 vlineto
          -75 -19 -33 -56 hvcurveto
          -323 vlineto
          -47 8 -41 77 vhcurveto
          250 hlineto
          hintmask 01110101
          146 -67 vlineto
          hintmask 10110101
          -78 -191 vlineto
          endchar
        </CharString>
        <CharString name="uni0455">
          -82 callsubr
        </CharString>
        <CharString name="uni0456">
          -242 -77 callsubr
          81 101 hstemhm
          50 145 -145 210 -166 101 -82 82 hintmask 11110000
          195 -63 callgsubr
          hintmask 11100010
          63 -364 3 callgsubr
          -36 callgsubr
          hintmask 11101000
          210 68 3 callgsubr
          -65 hlineto
          hintmask 11100100
          -101 513 rmoveto
          101 101 -101 hlineto
          endchar
        </CharString>
        <CharString name="uni0457">
          -242 -77 callsubr
          40 88 hstemhm
          9 86 -45 -91 callsubr
          -38 86 -2 callsubr
          hintmask 11110010
          2 callsubr
          hintmask 11110001
          -100 516 rmoveto
          -107 callgsubr
          148 hmoveto
          -107 callgsubr
          endchar
        </CharString>
        <CharString name="uni0458">
          -278 -200 69 563 68 81 101 hstemhm
          59 145 -101 101 -82 82 hintmask 11110000
          204 35 callsubr
          -563 3 callgsubr
          -132 -69 122 hlineto
          -40 callsubr
          hintmask 11101000
          -101 695 rmoveto
          101 101 -101 hlineto
          endchar
        </CharString>
        <CharString name="uni0459">
          244 0 68 362 70 hstem
          375 79 196 79 vstem
          176 500 rmoveto
          -12 callgsubr
          61 -363 -65 -67 331 hlineto
          -72 callgsubr
          6 callsubr
          67 71 vlineto
          129 -432 rmoveto
          -37 callsubr
        </CharString>
        <CharString name="uni045A">
          256 0 68 154 72 135 71 9 callsubr
          150 204 -146 79 196 79 hintmask 11110101
          336 hmoveto
          324 hlineto
          -72 callgsubr
          hintmask 11110011
          6 callsubr
          vlineto
          hintmask 11110101
          67 71 -204 -70 hlineto
          hintmask 11101011
          58 -136 -208 136 hlineto
          hintmask 11110101
          58 70 -199 -70 hlineto
          hintmask 11101101
          64 -362 hlineto
          hintmask 11110101
          29 callgsubr
          hintmask 11101011
          -58 154 208 -154 hlineto
          hintmask 11110101
          -58 hlineto
          333 hmoveto
          hintmask 11110011
          -37 callsubr
        </CharString>
        <CharString name="uni045B">
          97 0 68 183 67 114 68 182 68 hstemhm
          96 145 -145 208 -145 82 210 78 hintmask 11110011
          84 -24 callsubr
          75 -364 hlineto
          hintmask 11111001
          -36 callgsubr
          hintmask 11110101
          208 68 hlineto
          hintmask 11111001
          -63 183 210 -183 -63 -68 206 68 -65 140 hlineto
          90 -50 20 -65 vhcurveto
          -173 114 211 68 -211 250 -146 -68 hlineto
          hintmask 11110011
          64 -182 -75 hlineto
          endchar
        </CharString>
        <CharString name="uni045C">
          -25 -77 callsubr
          11 callsubr
          hstemhm
          45 204 -140 80 hintmask 11110000
          180 559 -102 callgsubr
          -242 -250 rmoveto
          64 -364 -64 -68 -34 callsubr
          hintmask 11101000
          86 68 3 callgsubr
          -52 hlineto
          -167 197 163 167 rlineto
          55 hlineto
          hintmask 11101000
          68 -78 vlineto
          hintmask 11110000
          -228 -224 rlineto
          156 64 68 -204 vlineto
          endchar
        </CharString>
        <CharString name="uni045E">
          -13 -250 67 615 68 -40 callgsubr
          25 182 -96 53 162 183 -144 53 hintmask 11011010
          326 500 rmoveto
          -68 48 vlineto
          -102 -342 -112 342 rlineto
          47 68 -182 -68 61 hlineto
          151 -461 -45 -154 rlineto
          -78 -67 63 hlineto
          58 21 32 57 17 hvcurveto
          176 593 rlineto
          60 68 hlineto
          hintmask 11011001
          -144 197 rmoveto
          hintmask 11101010
          -54 callsubr
          hintmask 11010101
          -103 callgsubr
        </CharString>
        <CharString name="uni045F">
          61 37 callgsubr
          59 199 -135 77 71 72 12 200 -142 78 hintmask 10101110
          200 -24 callsubr
          hintmask 10110110
          58 68 -199 -68 hlineto
          hintmask 10101110
          64 -362 hlineto
          hintmask 01110110
          -64 -70 212 hlineto
          hintmask 10110110
          -134 72 vlineto
          hintmask 01110110
          134 212 70 vlineto
          hintmask 10110101
          -64 362 hlineto
          hintmask 10110110
          64 68 -200 -68 hlineto
          hintmask 10101101
          58 -362 -213 hlineto
          endchar
        </CharString>
        <CharString name="uni0490">
          -24 0 -92 callgsubr
          -68 188 hstemhm
          60 -101 callsubr
          219 69 hintmask 10101100
          205 -50 callgsubr
          288 188 -69 hlineto
          hintmask 11010100
          -120 -364 -68 vlineto
          hintmask 11001100
          -85 callgsubr
          hintmask 11010100
          -95 callgsubr
          hintmask 11001100
          -65 hlineto
          endchar
        </CharString>
        <CharString name="uni0491">
          -100 0 67 362 71 -71 164 4 callgsubr
          hintmask 11001100
          -77 362 226 hlineto
          hintmask 10110100
          164 -70 vlineto
          hintmask 11010100
          -93 -297 -71 vlineto
          hintmask 11001100
          36 callsubr
        </CharString>
        <CharString name="uni2116">
          479 0 68 -21 67 49 66 210 62 181 68 -63 callsubr
          299 82 88 73 130 71 hintmask 1011110111000000
          -79 callgsubr
          hintmask 1011101111000000
          -85 callgsubr
          hintmask 1011110111000000
          -95 callgsubr
          hintmask 1011101111000000
          -54 callgsubr
          174 -181 rmoveto
          -34 hlineto
          -85 -30 -24 -88 hvcurveto
          -111 vlineto
          -97 27 -18 94 vhcurveto
          38 hlineto
          103 12 27 96 hvcurveto
          87 vlineto
          102 -17 26 -108 vhcurveto
          54 -272 rmoveto
          -130 210 130 hlineto
          hintmask 0111110111000000
          -204 -392 rmoveto
          273 67 -273 hlineto
          endchar
        </CharString>
        <CharString name="uniF6C3">
          -360 -177 14 callsubr
          hstem
          -40 -198 rmoveto
          39 callsubr
        </CharString>
        <CharString name="uogonek">
          26 -9 callgsubr
          68 365 68 -85 callsubr
          hintmask 11101010
          -99 callgsubr
          -112 vlineto
          hintmask 11110001
          144 68 11 callgsubr
          -38 callgsubr
          hintmask 11110010
          -90 callgsubr
          hintmask 11101001
          488 -433 rmoveto
          -99 callsubr
        </CharString>
        <CharString name="uring">
          -61 callgsubr
          33 49 81 48 -59 callgsubr
          10 49 91 38 11 81 -81 144 hintmask 0111101111000000
          -99 callgsubr
          hintmask 1011110110100000
          -28 callgsubr
          hintmask 1011110111000000
          -34 callgsubr
          -90 callgsubr
          hintmask 1011101111000000
          155 190 rmoveto
          -96 callsubr
        </CharString>
</ttFont>
